<?xml version="1.0" encoding="utf-8"?><svg xmlns="http://www.w3.org/2000/svg" version="1.1" baseProfile="tiny" width="1200" height="800" viewBox="0 0 1200 800"><g><g stroke="#000000" stroke-width="1" fill="#000000"><ellipse transform="matrix(1, 0, 0, 1, 597.31, 569.89)" cx="0" cy="0" rx="3.78" ry="3.78" /><ellipse transform="matrix(1, 0, 0, 1, 363.21, 579.24)" cx="0" cy="0" rx="3.78" ry="3.78" /><ellipse transform="matrix(1, 0, 0, 1, 210.78, 489.95)" cx="0" cy="0" rx="3.78" ry="3.78" /><ellipse transform="matrix(1, 0, 0, 1, 467.8, 489.69)" cx="0" cy="0" rx="3.78" ry="3.78" /><ellipse transform="matrix(1, 0, 0, 1, 339.74, 610.93)" cx="0" cy="0" rx="3.78" ry="3.78" /><ellipse transform="matrix(1, 0, 0, 1, 360.82, 574.42)" cx="0" cy="0" rx="3.78" ry="3.78" /><ellipse transform="matrix(1, 0, 0, 1, 308.51, 586.14)" cx="0" cy="0" rx="3.78" ry="3.78" /><ellipse transform="matrix(1, 0, 0, 1, 524.8, 510.69)" cx="0" cy="0" rx="3.78" ry="3.78" /><ellipse transform="matrix(1, 0, 0, 1, 380.26, 456.88)" cx="0" cy="0" rx="3.78" ry="3.78" /><ellipse transform="matrix(1, 0, 0, 1, 400.56, 433.98)" cx="0" cy="0" rx="3.78" ry="3.78" /><ellipse transform="matrix(1, 0, 0, 1, 493.02, 581.96)" cx="0" cy="0" rx="3.78" ry="3.78" /><ellipse transform="matrix(1, 0, 0, 1, 324.65, 553.99)" cx="0" cy="0" rx="3.78" ry="3.78" /><ellipse transform="matrix(1, 0, 0, 1, 315.72, 615.14)" cx="0" cy="0" rx="3.78" ry="3.78" /><ellipse transform="matrix(1, 0, 0, 1, 515.48, 594.11)" cx="0" cy="0" rx="3.78" ry="3.78" /><ellipse transform="matrix(1, 0, 0, 1, 529.61, 592.47)" cx="0" cy="0" rx="3.78" ry="3.78" /><ellipse transform="matrix(1, 0, 0, 1, 521.06, 521.96)" cx="0" cy="0" rx="3.78" ry="3.78" /><ellipse transform="matrix(1, 0, 0, 1, 314.93, 621.98)" cx="0" cy="0" rx="3.78" ry="3.78" /><ellipse transform="matrix(1, 0, 0, 1, 324.68, 557.61)" cx="0" cy="0" rx="3.78" ry="3.78" /><ellipse transform="matrix(1, 0, 0, 1, 533.56, 582.54)" cx="0" cy="0" rx="3.78" ry="3.78" /><ellipse transform="matrix(1, 0, 0, 1, 316.89, 639.6)" cx="0" cy="0" rx="3.78" ry="3.78" /><ellipse transform="matrix(1, 0, 0, 1, 377.08, 459.17)" cx="0" cy="0" rx="3.78" ry="3.78" /><ellipse transform="matrix(1, 0, 0, 1, 254.5, 521.63)" cx="0" cy="0" rx="3.78" ry="3.78" /><ellipse transform="matrix(1, 0, 0, 1, 428.91, 336.48)" cx="0" cy="0" rx="3.78" ry="3.78" /><ellipse transform="matrix(1, 0, 0, 1, 526.07, 523.81)" cx="0" cy="0" rx="3.78" ry="3.78" /><ellipse transform="matrix(1, 0, 0, 1, 1145.03, 433.31)" cx="0" cy="0" rx="3.78" ry="3.78" /><ellipse transform="matrix(1, 0, 0, 1, 344.3, 613.69)" cx="0" cy="0" rx="3.78" ry="3.78" /><ellipse transform="matrix(1, 0, 0, 1, 220.96, 504.54)" cx="0" cy="0" rx="3.78" ry="3.78" /><ellipse transform="matrix(1, 0, 0, 1, 529.92, 401.34)" cx="0" cy="0" rx="3.78" ry="3.78" /><ellipse transform="matrix(1, 0, 0, 1, 676.22, 493.51)" cx="0" cy="0" rx="3.78" ry="3.78" /><ellipse transform="matrix(1, 0, 0, 1, 543.15, 461.46)" cx="0" cy="0" rx="3.78" ry="3.78" /><ellipse transform="matrix(1, 0, 0, 1, 542.63, 462.35)" cx="0" cy="0" rx="3.78" ry="3.78" /><ellipse transform="matrix(1, 0, 0, 1, 543.68, 460.48)" cx="0" cy="0" rx="3.78" ry="3.78" /><ellipse transform="matrix(1, 0, 0, 1, 219.87, 503.31)" cx="0" cy="0" rx="3.78" ry="3.78" /><ellipse transform="matrix(1, 0, 0, 1, 222.49, 505.72)" cx="0" cy="0" rx="3.78" ry="3.78" /><ellipse transform="matrix(1, 0, 0, 1, 212.32, 493.45)" cx="0" cy="0" rx="3.78" ry="3.78" /><ellipse transform="matrix(1, 0, 0, 1, 492.12, 508.81)" cx="0" cy="0" rx="3.78" ry="3.78" /><ellipse transform="matrix(1, 0, 0, 1, 592.34, 570.63)" cx="0" cy="0" rx="3.78" ry="3.78" /><ellipse transform="matrix(1, 0, 0, 1, 333.18, 553.94)" cx="0" cy="0" rx="3.78" ry="3.78" /><ellipse transform="matrix(1, 0, 0, 1, 630, 420.7)" cx="0" cy="0" rx="3.78" ry="3.78" /><ellipse transform="matrix(1, 0, 0, 1, 538.58, 376.04)" cx="0" cy="0" rx="3.78" ry="3.78" /><ellipse transform="matrix(1, 0, 0, 1, 518.23, 375.01)" cx="0" cy="0" rx="3.78" ry="3.78" /><ellipse transform="matrix(1, 0, 0, 1, 315.72, 354.77)" cx="0" cy="0" rx="3.78" ry="3.78" /><ellipse transform="matrix(1, 0, 0, 1, 382.23, 345.58)" cx="0" cy="0" rx="3.78" ry="3.78" /><ellipse transform="matrix(1, 0, 0, 1, 380.46, 344.78)" cx="0" cy="0" rx="3.78" ry="3.78" /><ellipse transform="matrix(1, 0, 0, 1, 378.32, 343.97)" cx="0" cy="0" rx="3.78" ry="3.78" /><ellipse transform="matrix(1, 0, 0, 1, 384.87, 346.91)" cx="0" cy="0" rx="3.78" ry="3.78" /><ellipse transform="matrix(1, 0, 0, 1, 396.25, 350.96)" cx="0" cy="0" rx="3.78" ry="3.78" /><ellipse transform="matrix(1, 0, 0, 1, 404.84, 346.22)" cx="0" cy="0" rx="3.78" ry="3.78" /><ellipse transform="matrix(1, 0, 0, 1, 403.31, 345.33)" cx="0" cy="0" rx="3.78" ry="3.78" /><ellipse transform="matrix(1, 0, 0, 1, 375.54, 342.81)" cx="0" cy="0" rx="3.78" ry="3.78" /><ellipse transform="matrix(1, 0, 0, 1, 372.89, 341.77)" cx="0" cy="0" rx="3.78" ry="3.78" /><ellipse transform="matrix(1, 0, 0, 1, 369.78, 340.48)" cx="0" cy="0" rx="3.78" ry="3.78" /><ellipse transform="matrix(1, 0, 0, 1, 432.35, 451.06)" cx="0" cy="0" rx="3.78" ry="3.78" /><ellipse transform="matrix(1, 0, 0, 1, 328.62, 575.45)" cx="0" cy="0" rx="3.78" ry="3.78" /><ellipse transform="matrix(1, 0, 0, 1, 299.72, 593.05)" cx="0" cy="0" rx="3.78" ry="3.78" /><ellipse transform="matrix(1, 0, 0, 1, 290.87, 616.65)" cx="0" cy="0" rx="3.78" ry="3.78" /><ellipse transform="matrix(1, 0, 0, 1, 262.91, 503.11)" cx="0" cy="0" rx="3.78" ry="3.78" /><ellipse transform="matrix(1, 0, 0, 1, 286.78, 520.45)" cx="0" cy="0" rx="3.78" ry="3.78" /><ellipse transform="matrix(1, 0, 0, 1, 286.6, 664.69)" cx="0" cy="0" rx="3.78" ry="3.78" /><ellipse transform="matrix(1, 0, 0, 1, 487.32, 612.39)" cx="0" cy="0" rx="3.78" ry="3.78" /><ellipse transform="matrix(1, 0, 0, 1, 292.14, 636.8)" cx="0" cy="0" rx="3.78" ry="3.78" /><ellipse transform="matrix(1, 0, 0, 1, 271.25, 638.94)" cx="0" cy="0" rx="3.78" ry="3.78" /><ellipse transform="matrix(1, 0, 0, 1, 285.98, 636.02)" cx="0" cy="0" rx="3.78" ry="3.78" /><ellipse transform="matrix(1, 0, 0, 1, 285.24, 636.22)" cx="0" cy="0" rx="3.78" ry="3.78" /><ellipse transform="matrix(1, 0, 0, 1, 281.32, 637.45)" cx="0" cy="0" rx="3.78" ry="3.78" /><ellipse transform="matrix(1, 0, 0, 1, 282.06, 637.22)" cx="0" cy="0" rx="3.78" ry="3.78" /><ellipse transform="matrix(1, 0, 0, 1, 280.14, 635.9)" cx="0" cy="0" rx="3.78" ry="3.78" /><ellipse transform="matrix(1, 0, 0, 1, 280.88, 635.67)" cx="0" cy="0" rx="3.78" ry="3.78" /><ellipse transform="matrix(1, 0, 0, 1, 284.05, 634.75)" cx="0" cy="0" rx="3.78" ry="3.78" /><ellipse transform="matrix(1, 0, 0, 1, 284.79, 634.52)" cx="0" cy="0" rx="3.78" ry="3.78" /><ellipse transform="matrix(1, 0, 0, 1, 523.01, 594.77)" cx="0" cy="0" rx="3.78" ry="3.78" /><ellipse transform="matrix(1, 0, 0, 1, 589.92, 572.73)" cx="0" cy="0" rx="3.78" ry="3.78" /><ellipse transform="matrix(1, 0, 0, 1, 504.72, 597.26)" cx="0" cy="0" rx="3.78" ry="3.78" /><ellipse transform="matrix(1, 0, 0, 1, 461.27, 592.75)" cx="0" cy="0" rx="3.78" ry="3.78" /><ellipse transform="matrix(1, 0, 0, 1, 453.15, 594.71)" cx="0" cy="0" rx="3.78" ry="3.78" /><ellipse transform="matrix(1, 0, 0, 1, 468.21, 598.39)" cx="0" cy="0" rx="3.78" ry="3.78" /><ellipse transform="matrix(1, 0, 0, 1, 308.95, 576.36)" cx="0" cy="0" rx="3.78" ry="3.78" /><ellipse transform="matrix(1, 0, 0, 1, 334.52, 556.38)" cx="0" cy="0" rx="3.78" ry="3.78" /><ellipse transform="matrix(1, 0, 0, 1, 507.22, 514.29)" cx="0" cy="0" rx="3.78" ry="3.78" /></g><g stroke="#000000" stroke-width=".98" fill="none"><path d="m352.08 609.33l1.35-2.45 2.35-1.61 2.44-.82" /><path d="m369.26 606.53l7.1-.17 4.1-.42 2.61-.27 7.42-.76 13.14-1.02 13.15-1.19 11.72-.78 15.34-.22 14.48.13 12.72.6 11 .94 12.01 2.18 8.83 3.06 9.93 4.89 9.19 5.94 24.04 17.16" /><path d="m355.14 614.3l-8.49-.72-2.35.11-4.58.2-7.89 1.44-9.38 2.04-10.53 2.71-10.28 3.17-14.09 4.81-3.56 1.38-10.61 4.1-2.46.88-4.77 1.71-4.78 1.73-11.08 3.6-8.49 2.43-12.98 2.19" /><path d="m228.82 646.08l11.72-4.68 8.31-2.73 10.93-3.64 11.23-4.4 10.23-3.87 4.54-1.72 13.15-4.64 11.12-3.34 11.48-2.89 9.38-1.93 8.83-1.31 6.55-.8 3.88-.54 1.91-.26" /><path d="m347.3 701.74l4.36-2.73 6.79-1.69 8.72.45 11.48 1.86 8.41.78 8.17-.92 9.23-3.14 8.52-4.65 8.34-5.9 6.67-4.06 6.09-3.69 4.88-2.82 8.97-2.64 5.67-.17 5.99 1.42 6.93 3.02 4.25 1.03 4.29-1.5 1.86-3.03 1.94-1.14 4.43-2.6 4.9-3.97 7.24-2.75 5.06-1.5 5.5-1.63 7.72-2.93 6.17-3.51 2.97-1.69 13.82-5.23 19.94-9.46 7.15-3.43 16.05-4.32 9.49-5.68 3.74-7.11 2.6-4.59-.74-4.14 1.86-4.83 11.23-9.55-3.26-8.18 8.6-6.47 9.08-4.54 8.08-2.35 4.97-3.85 3.26-1.74 2.39-3.09 1.75-4.88 5.44-6.6-2.44-4.94.63-4.98.43-.74 1.44-2.49 6.28-5.72 7.06-5.92 6.86-6.43 1.21-2.83.14-2.79-1.7-4.2-2.21-1.59-.56-2.25.11-2.69.33-2.81 2.39-3.04 7.95-4.67 13.51-7.95 8-5.21" /><path d="m91.35 261.49l-21.94 17.25-12.23 7.34-.87 4.84-1.34 7.44 2.85 3.84 7.14 2.39 24.52 5.24 35.67-8.34 33.85-4.26 16.39-.41 27.4 1.47 11.7 6.91 15.85 2.72 1.8 3.83-7.57 2.02-1.42 4.66 10.85 19.43 14.86 13.13 11.2 26.32-23.96 5.27 2.21 19.36-.34 4.95-2.26 4.77-1.31 4.42.38 4.81 5.61 16.41 6.98 16.09 4.64 10.27 4.19 1.93 6.21 2.44 10.81 8.31 4.99 8.33 1.24 3.86" /><path d="m232.14 311.75l15.98-.03 12.81-1.51 3.76-4.34 5.72 1.05 5.38 5.54 3.74 1.47 4.85 14.05-14.28 15.39 15.07 13.64.88 6.15-11.56 13.8-14.43.35" /><path d="m378.06 558.48l7.33 3.39 2.27.67 1.61-.06 1.61-1 4.33-4.67 1.48-.9 1.33-.51 1.25-.11 1.72 0 24.19 10.62 13.16 2.32 10.15.82 5.04-.38 6.78-.7 6.68-.46 8.46-2.94 5.57-3.03 9.29-2.75 10.03-3.42 10.07-4.13 10.75-5.76 8.27-4.6 9.64-7.58 2.88-3.23 2.75-7.15 6.26-10.93 6.31-11.83 1.72-6.41.67-6.22 3.9-11.68 4.72-10.91 5.81-10.93 2.68-4.77 4.15-4.34 4.56-2.96 6.43-2.03 4.43-1.42 10.13-4.15 13.53-6.69 7.1-5.13 2.9-1.82 6.71-4.22 8.4-5.53 3.6-4.21 1.28-4.66.33-7.69 3.1-2.17 10.49-2.84 9.84-2.91 3.71-.46 3.17.61 2.36 1.42 3.45 3.7 3.63 3.4 3.47 1.66 5.01.52 5.06-.94 2.69-.95 1.36-1.57.87-2.01.32-3.72.88-3.67 4.09-2.89 5.52-1.88 5.31-.87 13.67-.14 8.2 1.31 6.29 1.75 8.72 3.04 6.88.69 5.09-.02 5.57-1.39 3.59-2.85 4.02-3.34 5.64-3 7.98-4.51 8.64-1.99 9-1.31 9.26-1.33 8.29-2.07 7-2.51 10.86-4.04 4.46-1.88 5.25-2.82 4.02-1.84 6.24-3.06 7.67-3.81" /><path d="m481.5 598.74l-14.71-3.23-10.93-2.59-8.41-1.82-3.81-.53-5.06-.7-11.12-1.47-3.5-.49-9.12-1.29-2.76-.33-9.55-1.12-3.56-.45-5.95-.75-10.37-2.03-9.14-1.8-10.3-.9" /><path d="m481.5 598.74l7.3 1.85 1.02.26 5.41.65 4.17.18 5.08-.65 4.72-1.31 4.29-1.68 3.06-1.91 1.07-.59 4.04-2.62 9.11-5.78 7.01-4.02 3.51-1.64 3.71-1.49 2.56-.95 10.55-2.1 7.27-1.54 1.97-.36 8.03-1.46 3.13-.59 8.6-1.63 3.78-.55 1.45-.18 4.97-.74" /><path d="m467.14 576.27l2.54 3.39 3.28 3.07 4.46 2.93 3.11 2.04 1.24 1.79.64 2.53-.91 6.72" /><path d="m363.21 579.24l-.39 2.53-.99 2.05-.32.65-.61 2.79-.95 5.25-.68 5.91" /><path d="m567.33 152.19l-7.76.64-5.64.58-3.17.59-2.47.46-4.87 1.74-4.9 1.51-3.76 2.33-2.61 1.46-1.52.86-3.95 2.44-5.45 3.49-5.07 2.44-5.61 2.45-7.18 3.13-7.52 2.79-7.14 2.32-8.08 2.67-8.38 2.1-7.97 1.51-6.53 1.35-1.2.16-8.25 1.05-9.59 1.04-15.41 1.51-11.84 1.63-10.15 1.27-9.4 1.05-8.99.33-5.17.01-.94 0-2.94.01-9.49 0-1.6 0-2.05.16-1.47.12-2.01.15-1.65.14-6.92 1.06-5.26 1.62-4.56 2.34-3.83 2.96-3.43 2.83-2.28 2.33-1.69 3.84-.65 3.23.46 3.62 1.32 4.54 4.14 6.52.35 1.06 2.46 2.88 2.85 2.38.91.76 5.45 3.37 5.66 3.47 2.39 2.16 2.85 3.2 1.79 3.45 1.6 5.15.75 5 0 2.38 0 2.96-.31 5.91-1.48 24.22-2.35 28.1.76 2.79 2.14 1.5" /><path d="m502.6 352.39l47.67 2.08" /><path d="m550.27 354.47l-3.17 6.85-1.45 4.28-3.07 8.51-2.08 4.68-4.36 9.19-1.75 4.5-.75 3.6.27 4.65.54 1.51 1.06 2.91 3.95 7.09 6.88 11.59 5.57 10.78.37 2.5.34 2.21-.71 5.42-1.74 4.58-2.81 5.11-1.17 1.83-1.81 2.95-.7 1.27-.53.98-.52.89-.92 1.57-4.5 8.88" /><path d="m514.17 510.45l-.11 2.8 1.49 2.6 4.47 2.57 5.43 2.79 9.32 3.79 2.82.94" /><path d="m250.29 641.46l4.47 4.16 3.39 3.72 3 3.83 1.3 2.36.78 1.41 1.62 3.94.75 3.61.57 3.48.94 3.72.5 1.42.86 2.4 1.22 2.48 2.88 5.91 2.45 5.01 2.3 4.71 2.48 5.07" /><path d="m271.01 630.63l-5.11-3.89-3.99-2.97-3.5-3.51-1.61-3.19-1.91-10.05-.6-6.28-.41-7.54-.49-7.95.36-3.85 1.39-4.09 3.62-4.46 3.88-3.62 4.57-3.31 2.24-1.5 2.36-1.2" /><path d="m294.68 557.56l24.17-.35" /><path d="m408.68 473.14l5.52 2.14" /><path d="m337.49 441.09l25.85-.37 25.3-.44" /><path d="m303.35 442.2l3.04 5.96 3.01 4.53 2.44 3.49 3.01 3.13 4.87 4.85 12 10.56.95.83 13.44 11.83" /><path d="m525.45 521.21l20.34-34.25" /><path d="m510.83 510.71l7.2-14.31.5-.87 9.09-15.75" /><path d="m331.57 436.61l5.83-1.94 4.7-2.09 4.14-2.21 20.49-11.36" /><path d="m388.64 440.28l4.02-2.7 2.94-3.68" /><path d="m458.86 464.86l-20.08 19.17" /><path d="m469.98 494.85l17.46-21.83" /><path d="m414.2 475.28l5.14 1.84 19.44 6.91 31.2 10.82 9.8 3.43 4.33 1.68 5.36 2.58 9.73 4.29 7.8 3.43 3.83.45 3.34-.26" /><path d="m528.67 475.81l5.64-9.74 7.4-2.15" /><path d="m526.43 530.37l3.24.08 5.1-5.45" /><path d="m297.12 356.11l2.88-3.61 3.61-2.97 3.82-3.08 5.35-2.79 5.97-2.49 7-2.27 7.31-1.64 7.91-1.62 8.26-1.36 9.49-.97" /><path d="m496.02 372.54l42.56 3.5" /><path d="m433.21 604.92l-4.51 2.32-.89 3.08" /><path d="m288.11 653.93l5.87-2.23 3.41-1.21 6.23-2.6 8.33-3.32 1.98-2.03.74-1.56" /><path d="m358.72 333.31l2.74.59 4.14 0 9.02-.46 6.17-.24 5.07-.13 6.24-.1 10.34.12 9.21.23 11.46.35 10.88.43 36.87 1.31 27.81 1.17 10.17.66" /><path d="m433.99 334.1l-16 21.18-11.66 15.83-14.99 18.6" /><path d="m337.77 357.55l.95 1.92 1.89 1.69 20.04 12.13 30.69 16.42 16.74 6.26 16.05 7.64" /><path d="m289.8 373.04l38.39 23.16 38.54 22.81 12.78 6.95 7.7 4.18 8.39 3.76" /><path d="m428.65 452.47l1.04-1.18.17-.68.36-1.48-1.47-1.55-5.82-2.56-9.03-3.37-12.82-4.53-5.48-3.22" /><path d="m430.22 449.13l3.79-2.6 3.95-2.91 3.01-2.67 2.82-3.25.55-.72 1.84-2.42" /><path d="m577.15 540.1l-15.63 11.36-2.53 1.21-3.66-.35-18.92-8.47-1.07-1.56.93-1.86 13.14-10.08" /><path d="m337.77 357.55l.76-2.03 2.07-1.98 8.08-6.15 1.5-1.28 2.98-.8" /><path d="m380.49 340.61l37.5 14.67" /><path d="m353.16 345.31l3.04.8 4.13 2.55 5.64 3.02 5.83 3.38 8.83 4.53 7.9 3.72 7.52 3.83 5.45 2.44 4.83 1.53" /></g><g stroke="#000000" stroke-width=".98" fill="#FFFFFF"><path d="m218.48 301.09l54.98 11.02 13.38 38.6 12.47-5.23 27.53-11.53-.1-12.78 6.16-26.98-16.04-15.48-59.75-3.81-8.74 16.29-29.89 9.9z" /></g><g stroke="#000000" stroke-width=".98" fill="none"><path d="m403.1 492.09l-2.92 2.21-3.19 2.45-3.74 3.04" /><path d="m383.41 501.85l-12.07 6.55" /><path d="m301.64 623.25l.86 1.17 4.83 6.59 7.34 9.97 1.66 1.04 1.9.85 2.56 0 2.3.08 3.67-.61 8.39-1.57 18.23-3.72 20.68-4.07 3.94-.51" /><path d="m537.78 583.12l-4.09-3.57-1.7-2.21-.18-1.75.56-1.27 2.45-1.28 3.57-.93 2.03-.01 2.26.18 1.23.5 1.36 1.91.8 1.89 1.49 2.46" /><path d="m532.37 574.32l-3.68-2.94-.83-.67-2.82-2.44-2.82-2.9-1.88-1.4-3.76-1.28-2.63-.46-3.18.09-.76.02-4.14.93-2.04.8-8.11 3.15" /><path d="m520.34 563.97l1.13-2.32 1.69-1.98 2.64-1.86 4.69-2.21" /><path d="m537.59 525.94l7.3 2.57" /><path d="m245.73 462.94l9.45-4.46" /><path d="m255.18 458.48l6.1-2.88 7.9-3.03" /><path d="m513.49 598.04l-5.36-3.22-1.69-1.98-.94-1.62-1.5-2.33-.94-2.09-.75-1.39-1.7-.82-2.25 0-2.44.35-1.88.93-2.45 1.04-2.44.82-3.38.82-4 .94" /><path d="m336.32 560.88l-10.33 7.13" /><path d="m318.85 557.21l9.13.05" /><path d="m258.41 620.26l-20.75 6.76" /><path d="m258.76 572.85l-4.56-2.33-3.57-.81-3.39-.35-3.94.12-3.58.58" /><path d="m280.51 560.06l-3.55-2.65-2.17-.83-2.15-.61-2.44-.13-2.6.11-6.68-.28" /><path d="m244.81 522.29l9.2-5.12 5.83-2.44 6.01-1.75 3.2-1.27 2.25-1.75 1.88-1.62 1.32-2.33.75-2.09-.75-2.21-1.13-2.21-3.38-2.67-4.89-3.02-2.07-1.98-1.5-1.4 0-1.62.37-2.09.57-1.75 5.26-5.46" /><path d="m265.85 512.98l6.58 4.89 4.32 2.56 3.76 1.97 4.14 1.74 4.7 1.75 3.19 1.39 4.14 2.09 5.26 3.73 1.41 1.43 3.27 3.25.94.52 1.62 0 1.96-.1 1.58.52.99 1.16" /><path d="m274.5 506.01l4.51 0 4.52-.7" /><path d="m283.53 505.31l7.13-1.16" /><path d="m290.66 504.15l4.89-.7 3.57-.23 3.95.12 4.13.58 3.76.93 2.07 1.39 1.88 1.98.94 2.21 1.88 2.44 1.5 2.09 2.64 2.44" /><path d="m329.25 557.74l3.93-3.8 1.47-1.72.51-1.13-.4-1.1-.72-1.16-1.42-1.75-.44-1.04-.22-1.07.19-.9.43-1.01" /><path d="m427.81 610.32l25 0" /><path d="m374.06 632.98l-.75-1.86.37-1.16.94-.93 1.88-.93 5.26-1.16" /><path d="m307.33 631.01l3.95-1.63 1.5-.82 1.13-1.04 1.13-1.16 1.5-.82 2.25-.93 4.14-1.28 4.7-1.04 3.01-.47" /><path d="m319.72 464.16l16.18-7.17" /><path d="m340.03 490l6.08-2.62 12.71-5.48" /><path d="m356.01 479.43l2.81 2.47 18.99 17.17 2.64 1.63 2.96 1.15 3.05-.81 3.57-.81 3.22-.44 3.55.79 3.76 1.63 16.91 6.74 9.98 4.04" /><path d="m403.1 492.09l16.24-14.97" /><path d="m417.47 508.95l6.59-6.74" /><path d="m417.47 508.95l-11.46 11.86" /><path d="m499.2 506.83l-3.91 3.29-2.26 1.5-2.63 1.4-2.82 1.63-1.88.69-2.44.35-4.14.35-4.88.35-2.63.58-1.51.93-.75 1.28-.19 1.39.94 1.16 1.69.82 3.39.35 3.38 0 4.14 0 2.63-.12 2.25.12 2.26.93 2.82 1.51 5.82 3.6 1.89.82 2.63.58 2.06.58 1.88.47 1.51.69 1.88 1.4 1.13 1.27.93 1.52" /><path d="m490.4 513.02l-2.82-1.75-2.25-.58-3.2-.57-3.94 0" /></g><g stroke="#000000" stroke-width=".98" fill="#FFFFFF"><path d="m476.31 505.69l-6.21 5.58 3.2 1.28 1.49 0 6.97 0 1.13-.58.56-2.79-1.5-1.51-5.64-1.98z" /></g><g stroke="#000000" stroke-width=".98" fill="none"><path d="m269.18 452.57l2.81 3.49.76 1.86.37 2.09.94 1.98 1.13 1.62 1.69.94 3.01 1.16 2.06.81 4.14 1.28 2.07 1.05 1.88 1.27 1.31 1.4 1.13 2.09 1.13 3.02 2.25 4.19 2.26 2.56 2.63 2.55 3.38 2.21 2.82 1.51 3.95 1.17 3.2.69 6.95 1.51 4.32.7 4.52.58 4.13.58 2.63.47 2.63.93 3.39 1.28 2.82 1.62 2.44 2.21 3.38 3.26 3.76 3.84 2.63 3.36 1.88 2.91.94 2.56.38 2.21.56 2.55 1.13 1.63 1.88 1.51 1.5 1.05 18.24 5.35 6.01 1.39 7.33 1.16 4.14.47 7.7 1.4 6.39 1.27 6.77 1.75 4.7 1.51 3.38.93 3.01.35 3.94 0 2.45-.47 2.26-1.05 3.19-2.2 7.71-7.21 8.08-9.19 3.76-4.76 1.31-2.32 1.32-2.21.8-2.25 5.85-5.76 5.47-6.15" /><path d="m286.28 464.66l1.69-1.28 2.26-1.16 2.63-.7 2.82-.11 3 .7 1.51 1.27 1.5 1.52 1.32 2.55 2.06 3.37 1.88 2.21 12.79 12.21 2.44 1.62 3.19 1.86 3.39 1.86 4.32 2.44 3.57 2.33" /><path d="m281.95 466.52l4.33-1.86" /><path d="m286.09 467.8l.19-3.14" /><path d="m314.85 459.31l-13.16 5.59" /><path d="m298.68 462.11l2.07-2.21 1.88-1.51 1.69-1.05 1.88-.58 2.44-.47 3.2-.11" /><path d="m360.71 501.74l-9.4 2.91" /><path d="m350 491.51l-7.33 3.26" /><path d="m371.34 508.4l-2.92-.38-2.26-1.39-5.45-4.89-5.64-5.23-3.38-.93-2.44-.46-3.2-.12-3.38-.23-3.39 1.51" /><path d="m331.57 436.61l5.92 4.48 4.05 3.12 4.7 2.9 5.22 2.92 5.87 3.01 6.95 2.67 22.2 8.72 22.2 8.71" /></g><g stroke="#000000" stroke-width=".98" fill="#FFFFFF"><path d="m415.97 528.01l10.71 4.3 4.52 2.44 1.69 1.63 1.88 1.4 3.38.93 2.44.58 10.15-8.49 8.65-9.41 6.77-9.42 12.03-12.79-1.85-.42-52.1-18.41-3.19-.35-1.7.35-1.69.82-10.42 9.99 29.18 12.03-20.45 24.82z" /></g><g stroke="#000000" stroke-width=".98" fill="none"><path d="m419.35 410.15l-14.85-5.7" /><path d="m496.02 372.54l-3.72 10.82-1.26 6.28-1.48 4.52-1.98 3.9-.59.9-2.51 3.75-4.79 3.83-5.64 2.8-6.81 2.1-6.35 1.15-7.33.35-3.73-.45-3.98-.48-6.76-2.09-6.58-2.68-8.38-3.63" /><path d="m487.58 398.06l3.95 1.51 2.07.46 2.25.35 2.45.12 5.07.24 2.45.46 2.06.58 1.88.81.75 1.17 0 1.74-1.88 4.76-1.31 1.52-1.88 1.04-2.82.82-2.25 0-2.45-.35-6.77-2.56-5.63-2.21-5.83-1.98" /><path d="m502.6 352.39l-32.5-1.63" /><path d="m527.43 489.89l-5.26 8.25-6.58 9.41-1.42 2.9" /><path d="m537.21 472.8l-4.89 8.72-4.89 8.37" /></g><g stroke="#000000" stroke-width=".98" fill="#FFFFFF"><path d="m548.81 650.02l-5.97-1.81-22.05 9.39-24.05 8.32-21.22 13.4-22.72 16.1 12.54 12.01-.73-.32-17.38 7.16 9.75 11.51 41.29-13.91 17.36-8.75 25.45-16.88 34.47-15.63-15.75-13.79-10.99-6.8z" /><path d="m259.43 648.04l-2.91 1.1-3.66-3.82-2.84-1.17-2.81.11-19.66 4.9 2.5 1.45 5.02 21.42 3.71 18.57 1.05 24.66 3.95 7.69 12.76-.65 5.42-.64 6.76-.34 5.56.47 3.06-.33 2.5-.84 1.02-1.83-.28-1.54-1.26-1.97-2.65-1.12-2.09-1.11-1.16-1.98-.28-1.55.84-2.01 16.25-13.19-9.49-22.11-4.98-6.67-11.15-12.95 9.38-3.04-3.73-5.47-10.83 3.96z" /><path d="m280.74 672.21l18.97-5.39-.81-4.26 38.4-9.92 51.01-8.5 3.65-14.62 2.89-12.95-48.74 8.82-1.79-7.72-13.97 0-11.39 1.81-11.49 4.07-17.24 5.88 9.32 11.74-12.45 3.19-3.43-5.3-10.69 2.74-4.73-4.84-14.88 5.13 6.06 5.95 10.83-3.96 3.73 5.47-9.38 3.04 11.15 12.95 4.98 6.67z" /></g><g stroke="#000000" stroke-width=".98" fill="none"><path d="m281.24 626.76l1.86-3.39 12.18-4.97 15.75-4.22 19.62-4.79 8.34-1.09" /><path d="m366.71 605.03l2.29-.4 7.99-.21" /></g><g stroke="#000000" stroke-width=".98" fill="#FFFFFF"><path d="m217.71 561.24l1.19 20.77-.23 3.28 11.47-.58 3.38 28.48-11.84.7 4.12 14.48 4.87 13.56 34.89-11.4 8.02-3.49 7.44-4.23 14.26-5.69 24.24-6.23 32.62-6.35 2.65-3.28.55-4.68-14.14-5.45-38.64 7.55-22.32 8.57-2.2-6.68-1.04-9.53-1.99-13.73 4.03-8.27 26.25 15.86 12.1-6.33-6.35-4.19-.65-3.33 5.62-4.19 6.36-1.44 7.2-2.76-1.9-4.42-12.77-4.91-19.92-8.08-23.18-7.73-24.37-11.39-17.61-12.24-7.69-5.05-9.73 19.62-1.27 14.09.81 11.56 5.77 7.13z" /><path d="m246.93 465.32l-12.87 9.16-8.32 9.01-11.6 7.17 2.68 4.96 10.12-4.59 12.17-5.52 18.72-14.15-10.9-6.04z" /><path d="m260.51 473.19l-8.92 6.8-3.86 4.6-2.68 4.6.35.81 1.44 3.41 3.86 4.78 7.13 4.41-20.5 8.46-3.2 1.2-4.31 1.63 17.61 12.24 24.37 11.39 23.18 7.73 19.92 8.08 14.08 2.56 11.98 3.92 7.83 3.45 19.61 13.23-2.08 9.01-2.68 9.01 2.97 7.35 3.78-.23 27.13-1.79 26.52-.66 5.36 1.27 23.55-.1 21.59 1.61 3.83-6.17 5.94-11.03 3.27-9.37-10.7-8.64-16.35 5.7-44.38-5-34.51-5.58-37.91-12.95-29.43-14.52-33.58-22.61-11.29-12.13-11.3-9.19 1.78-8.09 7.14-5.51-6.54-3.68z" /></g><g stroke="#000000" stroke-width=".98" fill="none"><path d="m543.05 639.09l-25.05-17.89-8.6-5.47-9.42-4.66-8.35-2.46-11.69-2.12-9.05-.95-13.13-.72-15.49-.47-9.06.57-16.99.77-13.74 1.01-11.23 1.45-8.21 1.22-5.69 1.54-9.07 3.18" /></g><g stroke="#000000" stroke-width=".98" fill="#FFFFFF"><path d="m301.02 500.53l-5.35 7.54 2.67 7.35 32.4 19.85 31.02 16.4 25.58 8.85 12.02-6.4 30.11 11.31 19.38 1.43.78-10.27-22-7.16-60.36-10.72-3.84-.68-18.42-5.88-5.06-5.7 4.07-12.3-1.7-.77-1.4-.07-.83-.34-1.19-.53-10.12-5.37-1.9-2.68-.23-.68-13.44-2.26-12.19-.92z" /><path d="m344.11 449.07l-5.94.36-7.73 2.21-2.51 1.17-4.32 1.04-5.95 2.39-4.16 5.69-8.02 3.5 6.24 8.64 11.89 10.29 12.48 7.9 5.35 0 9.81-3.12 16.25 19.53 9.06 4.91 19.86 6.25 19.55 8.18 20.45-24.82-29.18-12.03-4.57-2.02 12.48-11.58 10.7-5.7 11.89-13.42-29.43-7.53-13.67-3.31-17.54-2.39-22.08.77-10.91 3.09z" /><path d="m448.44 461.38l-25.15 16.35 41.44 14.6 6.56 2.33 12.98 4.6 11.76 5.31 11.81 5.34 15.2-30.88-.79-.28-4.73-1.18-22.42-6.26-24.67-6.43-20.8-5.7-1.19 2.2z" /><path d="m536.71 483.99l-15.16 22.05 14.86 4.79-27.56 19.02 17.27 8.9 9.62-7.92 6.91-9.53 14.27-34-20.21-3.31z" /><path d="m589.17 548.68l-3.23-2.63-2.28-1.19-6.86-2.7-32.66-11.3-6.13 5.48-7.84 7.02-23.1 13.48-30.19 9.91 10.7 8.64 19.38 11.41 2.41 1.41 30.61-13.6 18.43-5.7 28.53-8.27-.06-6.66 5.71-1.75-3.42-3.55z" /><path d="m486.82 590.65l-2.76 7.54 14.9 1.23 3.98-1.27 4.64-1.48-10.41-7.58-10.35 1.56z" /></g><g stroke="#000000" stroke-width=".98" fill="none"><path d="m518.05 623.73l-2.28.83-4.66-3.42" /><path d="m514.12 611.18l-2.08-6.25-2.84-5.21" /><path d="m511.11 621.14l3.01-9.96" /><path d="m540.87 640.04l-3.87-2.75-10.59-7.79-8.36-5.77-8.66-5.45-3.05-1.75-7.08-3.51-8.62-2.94-7.65-1.11-11.35-1.66-1.58-.08-22.81-1.19-11.3.37-7.25.83-4.52.33-27.16 1.96-15.75 3.13-12.19 3.86-10.4 1.28-14.3-2.18" /></g><g stroke="#000000" stroke-width=".98" fill="#FFFFFF"><path d="m592.89 564.09l.51-7.28-.56-4.24-.25-.34-5.71 1.75.06 6.66-28.53 8.27-18.43 5.7-30.61 13.6-1.18 8.43 2.86 5.3 1.2 2.19 2.56-1.66 4.44-2.89 6.76-4.38 12.19-4.6 13.97-6.25 13.96-2.39 16.2-3.3 2.15-.44-.11-.39.88-.19 2.02-.39.44-.07 1.67-.13-.11.59 2.28-.14 2.1 0 1.57 0 .06-1.07.82.04-.03-1.41-.06-1.28.02-1.08-2.04-.02-2.25-.01-.81.03-.54.01-.47.02-2.28.09-2.8.23-4.87 1.22-17.64 3.54-4.78 1.23-1.61-3.47 3.88-.55 1.09-.2 16.03-2.99 1.9-.36 6.59-1.23 6.34-1.15-.3-1.63.74.01.68-3.38z" /><path d="m303.69 429.4l11.38-2.24 7.12 6.04 14.36 8.19 14.59.29 30.83-.2 8.45-.37.36.06 16.48 2.61 6.11 1.06 21.1 4.04 4.14 1.05 12.16 3.41 7.18-12.91 2.67-5.51-.59-6.81-1.78-7.35 6.83-3.67 8.62.18 11.29 2.76 7.18 5.23 9.97 7.66 16.62-2.6 6.68-2.77-4-11.67-.46-12.25 3.84-10.43 10.1-8.64 5.35-7.54 1.77-5.04 1.45-4.13 9.86-28.14 8.46-16.9-25.1-2.76 1.19-6.25 1-3.82 3.26-13.69 25.51 2.79 2.32-13.03-16.04-1.78.85-4.27-8.61-.47 2-5.97 22.58 2.98 3.98-11.44 13.38-26.47 5.05-15.8.89-8.45-5.05-10.29-8.62-15.44-8.03-16.91-5.64-13.41-3.58-8.17-28.77 4.42-48.3 7.43-50.75-28.82-3.79-1.64-7.05-17.69 1.84-16.41 2.98-21.03 12.63-3.21 7.98-2.53 35.96-11.21-49.97-53.9-10.7 2.94-6.54 6.62-16.36-.39-9.7-5.44-14.55-4.3-1.5 29.73 24.52.92 1.48 7.8-49.04 19.76-2.97 35.37-45.96 12.09-17.19 7.81-4.83 9.19 15.97 53.6 1.88 10.69 6.24 31.42 4.17 23.89 6.03 31.44 16.04 15.48-3.83 13.21-2.33 13.77.1 12.78-27.53 11.53.05 6.53.73 3.42-2.54 1.42-6.02 10.15-2.72 2.56-.57.55-4.92-1.56-5.57 6.81-3.02 2.21-11.24.78-6.59 3.16 4.82 10.25 16.12-1.69 6.83 12.13 9.81 18.38 9.21 8.82z" /><path d="m514.98 475l10.66 2.23 12.84 1.34 20.51 0 3.1-9.76.46-1.46 11.17 1.88 6.21-.34 3.13-3.19 1.19-3.86-24.67-4.78 1.48-4.41.09-3.53.43-5.99-14.81-23.69-9.78 1.97 3.2 7.31.96 2.06 2.08 7.17-5.05 9-6.54 7.54-8.32 9.37-8.34 11.14z" /></g><g stroke="#000000" stroke-width=".98" fill="none"><path d="m527.62 479.78l1.05-3.97" /></g><g stroke="#000000" stroke-width=".98" fill="#FFFFFF"><path d="m553.56 312.01l-14.66-2.03-2.19 10.07 25.1 2.76 2.48-9.53-10.73-1.27z" /></g><g stroke="#000000" stroke-width=".98" fill="none"><path d="m517.62 595.54l13.21 11.65 7.54 5.67 7.56 2.19 3.4 1.64" /><path d="m376.99 604.42l20.53-2.74 19.88-1.04 11.1 1.28" /><path d="m346.11 607.37l4.06 2.22" /></g><g stroke="#000000" stroke-width=".98" fill="#FFFFFF"><path d="m518.98 628.45l-20.83-13.9-2.84 1.63-9.92 5.68 20.83 13.91 12.76-7.32z" /></g><g stroke="#000000" stroke-width=".98" fill="none"><path d="m546.19 456.26l-4.31-.98-4.46-.23-5.78-.56" /><path d="m297.12 356.11l-2.19 4.76-2.26 3.95-1.14 2.18-.74 1.42-.36 1.68-.63 2.94.05 4.22.11.84.45 3.46 1.32 4.64 2.33 4.56 3.87 7.42 5.26 8.36 5.45 8.26 2.45 3.48 4.32 4.5 3.95 3.41 3.95 3.02 4.51 3.49 3.75 3.91" /><path d="m252.59 286.55l.8.28 9.02 3.37 5.26 3.02 5.64 3.72 4.51 3.73 3.2 3.24 2.44 3.26 2.25 3.95 3.95 9.77 5.07 13.59 1.51 5.58 1.13 6.39.38 5.12-.63 4.54" /><path d="m355.07 496.51l-5.07-5-3.89-4.13" /><path d="m511.11 621.14l-3.02-2.22 1.3-.64" /><path d="m360.82 574.42l10.33-12.45-.22-.06-9.07-2.69" /><path d="m426.33 566.99l.23-1.94" /><path d="m426.56 565.05l.36-3.22-14.11-3.1" /><path d="m398.97 584.72l3.34-5.74 3.34-5.26.38-2.84" /><path d="m423.96 587.91l2.37-20.92" /><path d="m516.55 596.13l5.44 4.62 13.96 11.86" /><path d="m325.99 568.01l-2.04 1.95-.02.93-.05 2.19.89 2.85-.56 1.69-4.66 2.82" /><path d="m314.57 570.34l-8.36-4.48" /><path d="m306.21 565.86l-11.61 7.68" /><path d="m427.81 610.32l-.55 9.89-.39 6.96.56 2.04.76 1.45 1.88 1.04 2.82.58 9.02.77" /><path d="m344.38 615.62l-.08-1.93-.14-1.88-3.92.55-.5-1.43-.75-2.63" /><path d="m427.81 610.32l-3.63-2.75-4.18-1.19-3.78-.69" /><path d="m359.57 599.85l1.72 1.59 3.3 3.06" /><path d="m358.22 604.45l1.26-1.84.09-2.76" /><path d="m221.58 490.75l15.82-15.8 2.94-2.93 6.69-4.71 2.97.46 3.52 2.52-21.54 17.24" /><path d="m271.81 563.22l-13.41-6.62" /><path d="m260.92 555.67l-.86.6-1.66.33-2.16.07-17.85.13-15.14.6-13.83-2.54" /><path d="m1145.03 433.31l-44.52 7.51-16.96 2.98-20.62 3.54-55.12 9.44-51.97 7.23-37.13 2.76-74.06.05-31.73-.9-41.41 4.22-114.94 10.32-12.58.75-34.07 3.46-38.44-.04-31.8-3.58-15.08-2.82-15.7-3.8-30.37-8.79-29.91-7.18-39.95-9.13-16.34-2.71-8.68-1.3-15.91-.9-19.17-.33-22.07 2.12-23.65 4.08-20.69 5.82-18.02 5.86-10.4 4.71-23.96 21.54-7.22 8.85-2.25 2.76-7.07 12.8-6.31 20.34-1.3 19.7 2.04 10.8 7.8 40.32 5.11 30.56 2.79 9.88" /></g><g stroke="#000000" stroke-width=".98" fill="#FFFFFF"><path d="m518.35 316.52l-.8 2.61 4.64.55.81-2.62-4.65-.54z" /><path d="m519.45 312.53l-.95 3.47 4.85.51.96-3.47-4.86-.51z" /><path d="m519.59 312.29l4.44.62 1.22-3.31-4.44-.62-1.22 3.31z" /><path d="m522.28 304.4l-1.3 4.16 4.28.51.32-1.01 2.16.25.56-1.82-2.39-.29.41-1.32-4.04-.48z" /><path d="m542.97 343.7l-5.18-.77-1.2 3.06 2.13.32-.54 1.36-1.64-.24-.83 2.1 4.98.75.31-.8 1.57.23 1.6-4.08-1.85-.28.65-1.65z" /><path d="m515.66 346.91l-.82 2.17 2.06.3.82-2.18-2.06-.29z" /><path d="m519.81 334.94l-5.11-.58-.76 2.52 5.11.59.76-2.53z" /><path d="m523.75 350.39l.85-2.12-1.08-.16.66-1.62-4.97-.76-1.5 3.72 6.04.94z" /><path d="m513.06 339.14l-2.04 5.72 6.94.95.66-1.86-1.53-.21.67-1.89 1.34.18.7-1.97-6.74-.92z" /><path d="m407.75 305.14l-.11 1.89.51.01-.11 2.05 2.77.06.07-1.06 2.12.05.15-2.57-3.67-.08.02-.31-1.75-.04z" /><path d="m447.46 326.96l-3.61-.15-.22 2.12-3.62-.15-.25 2.39 3.77.15-.07.63 2.37.09.07-.68 1.1.05.46-4.45z" /><path d="m374.29 319.18l.99.01.04-1.47-5.27-.06-.07 2.53-.93-.01-.09 3.12 2.63.02.03-.96 2.58.03.09-3.21z" /><path d="m382.55 306.51l-.12 2.11 1.06.03-.03.48 1.05.03-.08 1.31 3.58.08.08-1.33.29 0 .07-1.36-2.15-.05.04-.65 1.89.04.06-1.02-1.99-.05.01-.21-1.9-.04-.04.67-1.82-.04z" /><path d="m501.71 325.45l-4.28-.23-.13.96 4.28.22.13-.95z" /><path d="m480.56 329.87l-8.06-.38-.36 2.98 8.06.37.36-2.97z" /><path d="m490.4 327.42l-8.37-.34-.32 3.03 8.36.34.33-3.03z" /><path d="m395.53 305.39l-.03 2.6 5.5.03.03-2.61-5.5-.02z" /><path d="m428.19 308.3l.02-2.9-5.24-.01-.02 2.9 5.24.01z" /><path d="m430.44 331.38l.54-4.81-7.49-.32-.54 4.81 7.49.32z" /><path d="m421.93 327.03l-7.16-.41-.58 3.93 7.16.4.58-3.92z" /><path d="m438.85 327.8l-6.05-.22-.34 3.68 6.04.22.35-3.68z" /><path d="m428.4 308.31l4.33.04.08-2.96-4.33-.05-.08 2.97z" /><path d="m444.56 319.25l-.3 2.07 3.72.2.29-2.06-3.71-.21z" /><path d="m450.53 305.91l-3.41 0 0 3.5 3.41 0 0-3.5z" /><path d="m464.08 305.84l-.14 3.07 5.17.09.15-3.07-5.18-.09z" /><path d="m479.34 306.13l-6.89-.2-.26 3.34 6.89.2.26-3.34z" /><path d="m500.86 316.39l-2.05 4.72 5.58.93 2.06-4.72-5.59-.93z" /><path d="m496.82 323.98l-.11 1.2.72.04 4.24.14.11-1.2-4.96-.18z" /><path d="m459.61 329.38l-.3-.01.18-2.06-6.81-.23-.46 5.31 7.1.24.29-3.25z" /><path d="m370.09 305.92l-.09 2.5 3.65.06.02-.46 2.36.04.07-2.06-6.01-.08z" /><path d="m377.62 306.94l-.03 2.93 4.51.01.04-3.33-2.59-.01-.01.41-1.92-.01z" /><path d="m394.91 305.34l-4 0 0 1.06-1.07 0-.01 1.57 5.08 0 0-2.63z" /><path d="m390.92 330.03l1.06-4.01-2.74-.27-.7 2.64-.58-.06-.36 1.36 3.32.34z" /><path d="m403.04 305.46l.01 1.17-1.13 0 .01 1.43 5.1 0-.02-2.61-3.97.01z" /><path d="m395.21 327.2l-.86-.05.15-.96-1.82-.11-.59 3.65 2.69.17.43-2.7z" /><path d="m420.23 305.62l-5.45-.1-.06 1.09-.9-.02-.08 1.65 6.36.12.13-2.74z" /><path d="m412.65 330.37l.43-4.55-2.51-.09-.11 1.13-1.83-.07-.32 3.42 4.34.16z" /><path d="m433.79 305.34l-.16 3.2 2.22.04-.02.59 2.58.05.18-3.8-4.8-.08z" /><path d="m453.09 305.75l.2 3.9 4.53-.09-.14-2.67-1.91.03-.06-1.22-2.62.05z" /><path d="m458.4 305.79l-.03 3.85 4.14.02.01-.72 1.31 0 .03-3.12-5.46-.03z" /><path d="m490.84 306.25l-.88 3.54 3.77.36.2-.84.66.07.67-2.71-4.42-.42z" /><path d="m471.13 330.02l-.63-.01.06-.91-6.18-.16-.25 3.76 2.62.07.04-.46 4.17.11.17-2.4z" /><path d="m363.61 304.79l-.23 4.52 3.03.06.14-2.69 3.19.06.14-2.69-2.32-.04-.04.85-3.91-.07z" /><path d="m401.85 329.47l.2-1.95-1.69-.07.14-1.26-3.59-.14-.4 3.76 2.96.12.06-.56 2.32.1z" /><path d="m407.47 326.38l-3.43-.17-.17 1.42-1.82-.11-.2 1.95 2.55.1-.07.56 2.65.13.49-3.88z" /><path d="m488.82 306.25l-5.25-.17-.03.41-1.48-.05-.19 2.26 3.55.11-.04.53 3.17.1.27-3.19z" /><path d="m504.68 310.22l-1.27 3.49 5.41.76.61-1.68-.79-.11.15-.43.66.09.5-1.39-5.27-.73z" /><path d="m505.64 306.35l-1.21 3.52 4.38.57.46-1.37 1.06.14.55-1.6-1.29-.17.18-.55-4.13-.54z" /><path d="m502.17 330.77l.35-2.51-.85-.04.23-1.66-4.61-.24-.27 1.94-4.82-.25-.31 2.23 10.28.53z" /><path d="m388.09 320.99l.15-1.56 1.47.05-.05.53 3.05.11.25-2.63-7.49-.27-.35 3.66 2.97.11z" /><path d="m438.67 305.41l-.18 3.78 2.4.05.03-.46 2.14.03.06-1.38.07-1.3-.99-.02.04-.64-3.57-.06z" /><path d="m361.34 322.19l-.21 7.54 5.56-.03.37-7.31-5.72-.2z" /></g><g stroke="#000000" stroke-width=".98" fill="none"><path d="m385.86 333.07l.68-5.98.98-1.47 1.21-.75 1.25-.61.75-.56.38-1.21.04-1.13" /><path d="m395.6 433.9l4.77-2.95 3.76-3.48 4.14-4.07 3-3.49 3.57-4.18 4.51-5.58 4.78-6.54 3.68-4.85 4.14-4.07 4.08-3.57 4-3.52 4.7-4.53 6.91-6.68 3.24-2.51 3.95-2.44 5.45-1.39 6.27-.45 6.88.56 9.4.94 9.19 1.44" /><path d="m531.68 263.6l-1.99 5.91-2.07 5.58-.75 2.2-1.51 4.54-1.88 5.81-1.87 6.05-1.99 8.15-2.34 9.63-3 9.88-5.44 15.89-2.08 3.77-2.06 4.88-2.1 6.5-6.58 20.15" /><path d="m342.49 468.46l2.02 2.29 2.6 2.42" /><path d="m344.51 470.75l-11.84 4.8" /></g><g stroke="#000000" stroke-width=".98" fill="#FFFFFF"><path d="m449.95 632.15l-.62 12.23 18.73.14 20.49-6.12 6.84 3.7 10.83-6.33-20.83-13.91 9.92-5.68-7.36-4.85-19.08 11.3 5.31 3.58-6.32 3.63-2.06 1.07-1.84.54-14.01.7z" /><path d="m239.68 667.34l1.27 3.33 21.5-3.14-1.27-3.34-21.5 3.15z" /><path d="m244.28 671.95l1.46 3.59 14.99-2.32-1.46-3.59-14.99 2.32z" /><path d="m277.42 635.1l3.44 4.42 2.98-.8 4.9-1.62-3.51-4.47-7.81 2.47z" /><path d="m285.85 641.04l7.52-2.48-2.01-2.33-2.62.87-4.9 1.62 2.01 2.32z" /></g><g stroke="#000000" stroke-width=".98" fill="none"><path d="m283.99 629.44l2.35 2.61.33.39 1.45 1.72-13.3 4.1-1.66-1.64-2.24-2.2" /><path d="m275.12 649.44l-8.97-13.31" /></g><g stroke="#000000" stroke-width=".98" fill="#FFFFFF"><path d="m235.5 661.93l1.66 4.92 15.31-1.98-1.67-4.93-15.3 1.99z" /></g><g stroke="#000000" stroke-width=".98" fill="none"><path d="m210.78 489.95l1.54 3.5 2.57 4.18 4.98 5.68 1.09 1.23 1.53 1.18 16.76 12.9 5.56 3.67 13.1 7.72.82.48 14.3 6.55 6.63 2.47 14.34 4.61 13.26 4.77 9.83 3.65 10.89 4.72 1.27.48 7.07 3.14 7.45 3.89 8.41 4.74 4.11 2.61 4.53 2.3 1.71 2.61.68 2.21" /><path d="m147.35 105.37l-.8 6.46-5.14 4.27-18.27 3.42-14.07 6.82-16.43 9.7-8.46 11.6 2.23 9.99-2.6 7.01 3.07 16.48 14.49 21.65 3.15 12.4 11.06 12.18 9.94 6.03 32.87 7.87 58.64 22.37 21.89 8.35 12.35 8.96-1.67 10.8 12.73 3.85 13.83 11.08 3.37 7.27" /></g><g stroke="#000000" stroke-width=".98" fill="#FFFFFF"><path d="m532.54 602.71l3.55 2.34 6.21-3.61 2.04 1.35 2.26-1.31-2.05-1.36 2.42-1.41-3.43-2.27-2.13 1.24-2.87-1.89-2.83 1.65 2.77 1.82-5.94 3.45z" /></g><g stroke="#000000" stroke-width=".98" fill="none"><path d="m320.2 701.08l-18.99-33.38.37-4.14 36.87-9.44 43.75-7.1 85.91-1.63 20.43-5.06 5.95 3.91 22.66-8.74 9.81-4.58" /><path d="m279.45 488.53l15.48 7.98 8.26 1.51 7.33 1.05 6.39.23 9.4.35 5.56.78 4.78 2.59 1.13 3.84-.19 2.67 2.26 1.51 5.07.58 2.45 3.03-2.07 4.99.19 3.03 2.81 3.02 5.83 1.74 5.77 1.63 6.21 1.78 11.33 2.75 11.07 2.82 9.76 2.46 9.93 1.63 4.76.88 9.59 2.68 9.02 2.9 7.9 1.4 8.08 1.83 6.19.13 5.09-.69 6.2-.93 6.76-.45 5.7.92 12.82 9.62" /></g><g stroke="#000000" stroke-width=".98" fill="#FFFFFF"><path d="m244.36 653.16l9.1-3.27-.41-.43 1.43-.51-2.87-3.05-1.42.51-.41-.43-9.1 3.27 3.68 3.91z" /></g><g stroke="#000000" stroke-width=".98" fill="none"><path d="m289.96 378.1l-6.51-.11-6.62 1.76-6.63.8-4.05.12-5.83 1.38 3.19 8.37" /><path d="m364.59 604.5l2.12.53 2.55 1.5" /><path d="m358.22 604.45l5.14-.26 1.23.31" /><path d="m369.26 606.53l1.69 2.67-.5 2.78-2.17 2.11" /><path d="m535.13 627.11l4.59-2.15 4.46-5.06 9.29-3.44 7.51-.15 10.78-8.61 8.18-4.59 6.21-1.41 4.47.05 6.14 1.1" /><path d="m526.96 630.92l8.17-3.81" /><path d="m359.27 598.42l.3 1.43" /><path d="m346.11 607.37l1.16-.79 3.3-.75 2.73-1.54 1.86-1.26.44-.86 1.05-3.9 2.62.15" /><path d="m344.38 615.62l-8.29.71-17.13 3.15-16.46 4.94" /><path d="m338.99 608.3l7.12-.93" /><path d="m269.18 452.57l6.95-2.79 7.33-2.32 9.02-2.56 10.87-2.7 7.74-1.83 8.08-1.4 6.95-1.27 5.45-1.09" /></g><g stroke="#000000" stroke-width=".98" fill="#FFFFFF"><path d="m267.43 362.38l.19-.63-9.75-1.12-.95 3.16 5.99.69-.56 1.34 3.02.48-.58 1.39 6.74 1.1 2.27-5.37-6.37-1.04z" /><path d="m286.34 371.68l-4.02-.24-.75 4.56 4.03.25.74-4.57z" /><path d="m269.25 380.96l-5.73.95 3.49 8.04 5.72-.95-3.48-8.04z" /><path d="m344.48 306.56l-4.54 1.16 2.83 4.25 4.54-1.16-2.83-4.25z" /></g><g stroke="#000000" stroke-width=".98" fill="none"><path d="m266.17 667.97l-26.55 4.08.68 5.07.86 5.87.75 5.12.77 5.27.87 6.04.76 5.21 1.17 7.99" /><path d="m449.83 412.49l7.3-14.45 4.01-2.61 3.91-.45 3.88.4 18.06 3.58" /><path d="m386.48 464.43l-13.93 12.29 28.56 12.73" /><path d="m372.55 476.72l-5.45-2.85-5.88-4.35-8.93-7.66" /><path d="m427.26 620.21l-8.85 2.83-2.82.42-3 .46-2.57 1.66-5.58 9.59" /><path d="m249.48 657.47l12.97-1.94" /><path d="m271.81 563.22l6.6-2.51 2.1-.65 3.45-1.08 4.53-.85 6.19-.57" /><path d="m279.66 539.51l-18.74 16.16" /></g><g stroke="#000000" stroke-width=".98" fill="#FFFFFF"><path d="m437.55 490.52l-7.25 8.79 9.88 3.11 2.01-2.44 1.32.42-.9 1.09 5.32 1.68 4.06-4.92-4.87-1.54 2.07-2.52-11.64-3.67z" /><path d="m455.1 509.59l-1.21 1.14 2 .81 1.21-1.14-2-.81z" /><path d="m449.75 510.23l-2.15 2.02 9.75 3.97 2.15-2.03-9.75-3.96z" /></g><g stroke="#000000" stroke-width=".98" fill="none"><path d="m491.04 389.64l25.14 3.48" /></g><g stroke="#000000" stroke-width=".98" fill="#FFFFFF"><path d="m293.49 578.52l-11.33 6.6-2.98-.05-.09 9.24 1.4 9.88 1.3 1.61 16.81-6.6 6.22-3.51-4.64-3.38.65-.98 7.52-3.91-14.86-8.9z" /></g><g stroke="#000000" stroke-width=".98" fill="none"><path d="m284.39 599.2l-.37 3.1 1.76 1.44 15.05-8.1.83-1.38-1.94-1.21-1.84-1.16" /><path d="m308.51 586.14l-10.63 5.75-13.49 7.31-.45-7.12" /><path d="m283.94 592.08l-.39-6.33 10.41-5.8 5.66 3.74-15.68 8.39z" /></g><g stroke="#000000" stroke-width=".98" fill="#FFFFFF"><path d="m328.77 586.34l6.26 4.2 1.95-1.1 1.03.69 2.73-1.56-9.17-6.15 4.16-2.37-.3-.2 1.16-.66-2.5-1.69-1.28.73-2.14-1.43-11.31 6.44-.82-.55-17.49 9.97 4.73 3.18 12.65-7.2 7.32 4.92 2.03-1.16.79.52 2.58-1.47-5.21-3.5 2.83-1.61z" /></g><g stroke="#000000" stroke-width=".98" fill="none"><path d="m319.55 580.44l.78-1.98-1.58-2.3-3.9-2.98-.92-1.84.64-1 4.28-1.7 7.14-.63" /><path d="m319.55 580.44l-11.04 5.7" /></g><g stroke="#000000" stroke-width=".98" fill="#FFFFFF"><path d="m491.64 504.42l-5.64 5.07 5.06 2.51 6.48-5.1-5.9-2.48z" /></g><g stroke="#000000" stroke-width=".98" fill="none"><path d="m338.72 359.47l-3.49-1.96-3.26-1.95-1.88-1.2" /></g><g stroke="#000000" stroke-width=".98" fill="#FFFFFF"><path d="m359.08 730.87l-11.93-8.37 5.85-10.02 4.74-5.42 21.6-.7 4.06-3.76-4.37-3.77-3.07-2.65-32.73 2.66-13.74 3.19-8.68-5.43-16.68-28.13-4.42-1.65-18.97 5.39 9.49 22.11-15.13 13.32-.17 3.98 2 1.86 2.39 1.8 1.54 3.51-3.52 2.67-8.06.38-12.74.46-15.03 3.53-6.18.45-2.88 2.04 7 17.99 5.46.71-.89-9.61 1.58-9.74 13.28-2.52 5.53 3.48 8.79 17.97 14.86 8.22-.57-8.36-6.86-7.37-4.86-10.18 33.23-11.68 51.22 35.51 8.76 6.67 10.76-1.42-4.32-3.83 13.54-4.3 15.41-3.96 5.83 48.48 6.84.62-5.3-35.94-.26-10.77.14-7.96 1.38-6.24 2.94-4.18 5.84-4.32 4.4-2.1 4.63-2.33-2.52 4.37-3.86 3.22-3.34 3.26-.1 4.43 3.29 4.29 6.82-3.88 3.51-3.81 3.98.78-1.11 3.5 8.05-.46 8.34-6.14 3.11-4.94-9.75-11.51 17.38-7.16-11.81-11.69 22.72-16.1 21.22-13.4 24.05-8.32 22.05-9.39 5.97 1.81-9.82-7.3-19.11 10.61-9.61 3.94-9.78 4.13-13.2 5.91-8.43 4.91-8.09 5.67-8.11.34-9.24-1.68-11.6.09-5.5 2.78-18.69 7.85 5.85 5.1 18.91-5.92 4.37 2.3-.9 3.35-6.85 3.33 9.33 14.41-25.1 7.51-18.69 11.85-3.82 5.28-6.99 3.9-6.93.2-2.52.07-11.93-.26-8.79-3.34-4.49-4.18z" /><path d="m521.73 630.48l-26.34 11.62-6.84-3.7-20.49 6.12-18.73-.14-60.2-.24-.82 0-51.01 8.5-35.72 10.92-1.87 3.26 4.42 1.65 16.68 28.13 8.68 5.43 13.74-3.19 32.73-2.66 3.07 2.65 11.57.15 9.46-2.93 17.57-8.78 18.69-7.85 5.5-2.78 11.6-.09 9.24 1.68 8.11-.34 8.09-5.67 8.43-4.91 13.2-5.91 38.5-18.68-17.26-12.24z" /></g><g stroke="#000000" stroke-width=".98" fill="none"><path d="m321.87 517.4l12.86 7.65" /><path d="m370.93 561.91l6.95-6.98 1.27-1.39 1.16-2.2.49-1.59-.42-1.53-.99-.61-7.82-2.63-5.39-1.87" /><path d="m468.46 510.19l6.33 2.36 3.4-2.43" /><path d="m333.02 539.91l.86 0 .8.18.68.33.46.45.21.52-.07.53-.34.48-.59.39-.75.26-.85.09-.85-.08-.77-.26-.6-.4-.35-.49-.07-.55.23-.52.49-.45.69-.31.82-.17z" /><path d="m335.82 540.87l1.79-.01 1.97.1 1.81.42 2.14.86 3.68 1.73" /><path d="m347.21 543.97l.85-.07 1.14-.53 2.11-1.48 1.92-1.56" /></g><g stroke="#000000" stroke-width=".98" fill="#FFFFFF"><path d="m492.58 533.56l3.32-2.45-1.95-1.01.68-.51-3.15-1.63-.72.53-3.31-1.71-3.03 2.23-.81-.41-2.72 2.01.68.35-.81.59 1.35.7-1.23.91-.88-.45-.64.47-1.39-.71.95-.71-8.09-4.17-2.71 2.02-.56-.29-2.21 1.63.49.5-.9.69-3.94-1.95 1.23-.95-2.03-1.01-5.29 4.09 2.23 1.11-.91.7 3.74 1.87 1.12-.87 2.43 1.21-.68.52 2.74 1.38 4.29-3.26-.8-.41 2.69-2.03.98.5-.74.55 1.66.85-1.33 1 8 4.1 2.97-2.22 1.14.59 2.56-1.91-1.16-.59.81-.6-1.35-.69 2.93-2.17-.67-.35.51-.37 4.51 2.33z" /><path d="m405.03 524.19l3.74 1.47 4.55-4.41-1.96-.77-1.78-.7-4.55 4.41z" /><path d="m413.32 521.25l2.55-2.46-1.96-.77-2.55 2.46 1.96.77z" /><path d="m415.87 518.79l5.69-5.57-3.81-1.48-5.68 5.57 1.84.71 1.96.77z" /><path d="m397.03 518.83l3.91 1.46 3.57-3.69-2.66-.99-1.24-.44-3.58 3.66z" /><path d="m404.51 516.6l1.62-1.65-2.66-1-1.62 1.66 2.66.99z" /><path d="m406.13 514.95l5.48-5.63-3.87-1.45-5.48 5.64 1.21.44 2.66 1z" /><path d="m399.83 523.22l1.97.83 1.35-1.23-1.97-.83-1.35 1.23z" /><path d="m410.99 504.46l3.91 1.54 6.55-6.34-3.92-1.55-6.54 6.35z" /><path d="m428.13 488.3l-13.66-4.35-3.52 4.22 13.66 4.35 3.52-4.22z" /><path d="m368.69 506.09l8.67-3.86-2.46-2.11-8.67 3.85 2.46 2.12z" /><path d="m351.21 490.62l9.03-3.75-2.18-2.01-9.04 3.75 2.19 2.01z" /><path d="m342.84 482.07l2.41 2.16 8.29-3.52-2.41-2.16-8.29 3.52z" /><path d="m329.58 487.76l2.45 2.2 8.39-3.57-2.45-2.2-8.39 3.57z" /><path d="m317.55 466.03l-10.25 4.31 2.66 2.42 10.25-4.31-2.66-2.42z" /><path d="m308.59 462.15l1.61 1.47 2.44-1.02-1.61-1.48-2.44 1.03z" /><path d="m311.45 454.21l1.57 1.34 5.09-2.26-1.56-1.35-5.1 2.27z" /><path d="m312.88 450.56l1.14 1.42 3.17-.96-1.13-1.42-3.18.96z" /><path d="m433.19 479.5l2.91 1.1 3.82-3.87-2.91-1.1-3.82 3.87z" /><path d="m438 474.39l3.06 1.24 6.12-5.8-3.05-1.24-6.13 5.8z" /><path d="m445.3 467.6l2.59.95 4.14-4.35-3.82-1.39-1.24 1.3 1.22.45-2.89 3.04z" /><path d="m468.54 487.44l3.71 1.18 14.65-17.76-3.72-1.17-14.64 17.75z" /><path d="m490.08 471.54l-11.72 14.59 6.87 1.95 1.97-1.93-3.5-1.19 9.91-12.34-3.53-1.08z" /><path d="m504.09 476.15l-1.68 2.18 7.33 2.17 1.68-2.18-7.33-2.17z" /><path d="m542.84 466.95l-5.05 9.68 4.41.88 5.04-9.69-4.4-.87z" /><path d="m395.85 506.64l2.99 1.06 2.64-2.87-2.99-1.05-2.64 2.86z" /><path d="m424.69 504.98l-3.83 4.07 3.73 1.35 3.83-4.07-2.07-.75-1.66-.6z" /><path d="m428.42 506.33l1.65-1.68-2.06-.77-1.66 1.7 2.07.75z" /><path d="m467.74 585.23l.02 3.38.62 0 .01 1.62 3.2-.01.01 1.87-.55 0 .01 2.43 5.44-.01-.01-.25.47 0-.02-2.64.51 0-.01-1.38-2.7 0-.01-1.14-.28 0 0-1.11-1.74 0 0-1.54-.46 0 0-.88-.58 0 0-.35-3.93.01z" /><path d="m451.4 476.94l4.17 1.43 2.81-3.14-4.17-1.42-2.81 3.13z" /><path d="m451.98 472.3l3.28 1.29 9-8.71-3.27-1.3-9.01 8.72z" /><path d="m368.53 452.18l4.58 1.71 2.01-2.05-4.58-1.71-2.01 2.05z" /><path d="m518.06 509.95l5.24 1.08 2.75-4.43-5.52-1.21-2.47 4.56z" /><path d="m353.88 564.36l9.55 3.72 3.57-3.5-9.55-3.72-3.57 3.5z" /></g><g stroke="#000000" stroke-width=".98" fill="none"><path d="m538.58 376.04l-5.54 8.65-1.26 1.96-7.47 11.29-1.39 5.97.59 12.59 2.71 9.36-.46 2.78-3.37 1.63-8.52 1.99-5.56.3" /></g><g stroke="#000000" stroke-width=".98" fill="#FFFFFF"><path d="m205.81 481.5l8.08 4.43 12.73-13.16 17.18-11.31 20.43-9.13 24.06-7.99 35.66-7.98-1.76-3.16-7.12-6.04-11.38 2.24-9.21-8.82-9.81-18.38-6.83-12.13-16.12 1.69-4.82-10.25 6.59-3.16-7.71-3.96-44.11 5.8.74 26.07 1.76 32.57.84 21.14-1.21 9.82-7.99 11.71z" /><path d="m329.57 562.66l-7.2 2.76-6.36 1.44-5.62 4.19.65 3.33 6.35 4.19-12.1 6.33-26.25-15.86-4.03 8.27 1.99 13.73 1.04 9.53 2.2 6.68 22.32-8.57 38.64-7.55 14.14 5.45.66-6.2-18.86-7.67 14.77-10.57-8.59-5.42-13.75-4.06z" /></g><g stroke="#000000" stroke-width=".98" fill="none"><path d="m545.65 365.6l-4.17 3.45-1.57 3.09-1.33 3.9" /><path d="m549.35 434.16l-1.86-4.83-10.03-15.22-4.09-9.53-1.95-5.88-.09-3.62 1.95-5.57 8.76-17.53" /><path d="m552.28 437.11l-3.12-1.57-2.69-5.58-4.74-6.77-6.13-9.37-2.97-8.27-.75-2.59-1.67-5.85.84-5.74 1.99-6.68" /><path d="m534.45 402.24l-2.57.72" /></g><g stroke="#000000" stroke-width=".98" fill="#FFFFFF"><path d="m342.04 327.87l-2.88.98 1.03 1.16-3.24 1.09 2.76 3.14 2.63-.89-1.08-1.23 3.48-1.18-2.7-3.07z" /><path d="m329.55 320.18l1.05 2.31 2.74-.48 2.66 5.85 4.98-.87-1.61-3.55 3.06-.53-1.31-2.89-4.45.77-.78-1.72-6.34 1.11z" /><path d="m417.96 338.15l-1.8 2.48 3.22.9-.68.94 3.53.99 2.5-3.42-6.77-1.89z" /><path d="m416.03 337.95l-5.9-1.53-2.14 3.15 5.9 1.53 2.14-3.15z" /><path d="m407.7 336.97l-4.7-1.82-2.67 2.63 4.7 1.82 2.67-2.63z" /><path d="m422.52 363.83l-7.26 7.01 4.22 1.45 3.18-2.9 2.96 1.01-5.52 4.69-4.43-1.31-1.75 1.66 5.1 2.18-.71 1.24 2.44.83 1.35-1.52 4.43 1.49 1.82-2.05-3.32-1.13 3.57-4.01 3.82 1.3 2.07-2.33-2.74-.93 2.15-2.42-4.73-1.82-1.35 1.54-3.05-1.23 1.36-1.66-3.61-1.09z" /><path d="m414.85 347.35l-.72.6-2.42-1.11-3.74 3.11 5.73 2.63 4.47-3.7-3.32-1.53z" /><path d="m407.23 345.09l-3.85-1.45-2.68 2.74 3.85 1.44 2.68-2.73z" /><path d="m384.86 345.45l-2.4 2.37 13.11 5.09.93-.91 2.15.83 1.47-1.45-15.26-5.93z" /><path d="m413.02 356.25l-5.25-2.16-6.34 5.87 5.26 2.17 6.33-5.88z" /><path d="m364.04 344.37l-3.94 2.96 30.18 15.32 2-1.51-4.81-2.44 1.94-1.46-25.37-12.87z" /><path d="m359.08 343.18l-2.11 1.84 3.27 1.42 2.1-1.85-3.26-1.41z" /><path d="m352.99 343.04l3.02 1.67 2.49-1.73-3.02-1.67-2.49 1.73z" /><path d="m380.73 343.51l-2.11 2.22 3.83 1.39 2.11-2.22-3.83-1.39z" /><path d="m380.12 343.33l-2.05-.68-1.98 2.28 2.05.68 1.98-2.28z" /></g><g stroke="#000000" stroke-width=".98" fill="none"><path d="m396.25 350.96l-11.38-4.05" /></g><g stroke="#000000" stroke-width=".98" fill="#FFFFFF"><path d="m377.45 342.38l-8.03-3.22-1.74 1.66 8.03 3.22 1.74-1.66z" /><path d="m400.61 342.21l-2.63-1.07-2.62 2.45 2.62 1.07 2.63-2.45z" /><path d="m397.07 339.82l-3.74-1.44-3.13 3.12 1.82.71.77-.78 1.92.74 2.36-2.35z" /><path d="m387.27 336.29l-2.2 2.26 4.79 1.79 2.21-2.26-4.8-1.79z" /></g><g stroke="#000000" stroke-width=".98" fill="none"><path d="m380.49 340.61l-3-.3-5.34-1.98" /></g><g stroke="#000000" stroke-width=".98" fill="#FFFFFF"><path d="m381.2 336.98l-2.77-.25-.36 1.56 2.78.24.35-1.55z" /><path d="m351.12 340.96l-2.08-.98-2.44 1.97 1.09.52 1.31-1.06 1.21.29.91-.74z" /><path d="m347.22 343.42l-5.09-2.43-2.75 1.84 1.92 1.17-1.13.71-.92-.56-1.96 1.22 3.45 2.11 6.48-4.06z" /><path d="m337.78 346.58l-1.78 1.06 2.68 1.72 1.78-1.07-2.68-1.71z" /><path d="m336.79 351.06l-3.95-2.47-4.3 2.62 3.95 2.48 4.3-2.63z" /><path d="m303.41 360.38l-2.62 1.82 3.45 1.89 2.62-1.83-3.45-1.88z" /></g><g stroke="#000000" stroke-width=".98" fill="none"><path d="m284.82 368.24l-5.57-2.36" /><path d="m284.82 368.24l3.99 1.32 1.62.54" /><path d="m274.98 364.44l4.27 1.44" /><path d="m269.77 373.52l5.21-9.08.55-1.72-3.53-6.03-9.38-11.26-2.88-2.06" /></g><g stroke="#000000" stroke-width=".98" fill="#FFFFFF"><path d="m261.09 345.81l-4.05 1.21 7.47 9.53 4.04-1.22-7.46-9.52z" /><path d="m266.63 343.62l-2.63.93 2.01 2.16 2.63-.93-2.01-2.16z" /><path d="m280.63 380.09l.27 3.67 3.99-.1-.27-3.68-3.99.11z" /><path d="m284.92 383.68l-4.2.71 1.04 2.34 1.3-.57 1.34 3.03-2.21.37.9 2.05 4.97-.85-3.14-7.08z" /><path d="m288.08 391.37l-3.32.77 1.67 2.74 3.32-.77-1.67-2.74z" /><path d="m287.56 395.54l3.01 4.03 3.33-.96-3.01-4.02-3.33.95z" /><path d="m294.72 399.21l-3.75.93 6.06 9.31 3.75-.94-6.06-9.3z" /><path d="m299.5 409.89l-4.72 1.08 1.26 2.11 4.72-1.09-1.26-2.1z" /><path d="m302.49 411.82l-4.38 1.14 7.54 11.12 4.38-1.14-7.54-11.12z" /><path d="m310.35 423.62l-6.18 1.64 2.08 3.01 6.19-1.64-2.09-3.01z" /><path d="m377.02 437.46l-14.26.05.02 2.27 14.25-.05-.01-2.27z" /><path d="m367.32 413.94l-3.08 2.03 7.71 4.49 3.08-2.03-7.71-4.49z" /><path d="m400.72 405.18l-4.29-1.53-5.61 6.02 4.3 1.53 5.6-6.02z" /><path d="m376.2 419.37l-2.43 1.7 3.2 1.76 2.44-1.69-3.21-1.77z" /><path d="m381.37 421.43l-2.75 2.22 4.45 2.11 2.75-2.21-4.45-2.12z" /><path d="m394.53 431.37l4.66-4.66-4.02-1.54-4.65 4.67 4.01 1.53z" /><path d="m384.59 437.04l-2.05 1.68 3 1.4 2.05-1.67-3-1.41z" /><path d="m388.26 437.6l3.91-3.79-3.41-1.34-3.91 3.78 3.41 1.35z" /><path d="m408.8 442.16l-6.71-2.43-1.54 1.62 6.71 2.43 1.54-1.62z" /><path d="m397.9 437.62l-2.97-1.11-4.51 4.6 2.97 1.12 4.51-4.61z" /></g><g stroke="#000000" stroke-width=".98" fill="none"><path d="m445.87 453.53l-13.52-2.47-2.49-.45" /></g><g stroke="#000000" stroke-width=".98" fill="#FFFFFF"><path d="m498.39 443.67l-7.07-.9-1.3 3.86 7.07.91 1.3-3.87z" /><path d="m504.34 457.15l-5.84-1.58-2.42 3.43 5.84 1.57 2.42-3.42z" /><path d="m528.72 444.45l4.88-4.36-3.64-1.56-4.88 4.37 3.64 1.55z" /><path d="m537.16 432.93l-3.52-.25-.93 4.84 3.53.26.92-4.85z" /><path d="m510.77 425.4l-6.21-.21-.49 5.46 6.21.21.49-5.46z" /><path d="m530.99 465.7l-3.47-.72-3.06 5.69 3.47.71 3.06-5.68z" /><path d="m524.03 476.14l2.91-4.23-4.92-1.29-2.9 4.23 4.91 1.29z" /><path d="m434.08 447.32l4.53 2.61 2.96-1.97-4.53-2.6-2.96 1.96z" /><path d="m441.11 449.79l2.07.98.28-.4 1.81.85.85-.68 3.06 1.45 3.16-2.55-1.44-.68-.84.67-3.26-1.54-1.22.98-2.1-1-2.37 1.92z" /><path d="m447.53 443.36l-4.63-2.4-2.3 1.7 4.64 2.4 2.29-1.7z" /><path d="m412.06 439.57l17.62 6.76 1.11-1.11 1.15.44 4.18-2.59-4.14-1.59-1.89 1.89-15.77-6.04-2.26 2.24z" /><path d="m411.36 439.04l2.16-2.18-9.69-3.7 1-1-1.71-.65-3.17 3.17 11.41 4.36z" /><path d="m454.2 425.85l-3.92-1.57-5.55 5.32 3.93 1.57 5.54-5.32z" /><path d="m453.03 430.15l-1.29.75 1.66 1.09-6.16 8.45 3.31.93 6.26-8.6-1-.28.94-1.3-3.72-1.04z" /><path d="m482.2 423.36l5.02-2.01-3.57-3.41-5.02 2.01 3.57 3.41z" /></g><g stroke="#000000" stroke-width=".98" fill="none"><path d="m440.95 435.61l3.39 1.37" /></g><g stroke="#000000" stroke-width=".98" fill="#FFFFFF"><path d="m431.57 424.45l-6.06-2.35-2.89 2.86 6.06 2.35 2.89-2.86z" /><path d="m407.51 416l-4.17-1.28-3.44 4.29 4.16 1.28 3.45-4.29z" /><path d="m400.1 425.44l1.63-1.46-2.91-1.24-1.63 1.46 2.91 1.24z" /><path d="m401.69 423.44l1.98-2.14-5.45-1.94-1.98 2.14 5.45 1.94z" /><path d="m406.6 430.25l1.51-1.53-2.04-.76-1.5 1.53 2.03.76z" /><path d="m410.14 423.53l-2.35 2.02 2.44 1.08 2.34-2.02-2.43-1.08z" /><path d="m412.2 420.36l5.2 1.82 3.43-3.75-5.21-1.82-3.42 3.75z" /><path d="m418.02 416.63l4.07 1.11 4.38-6.13-4.07-1.11-4.38 6.13z" /><path d="m424.57 406.96l-1.63 2.76 3.27.74 1.64-2.76-3.28-.74z" /><path d="m404.92 400.83l-2.08 2.03 9.83 3.85 2.08-2.03-9.83-3.85z" /><path d="m393.96 362.66l5.75 3.05 2.14.34-1.02 2.19 2.04.28 3.81-5.17-5.3-1.26-1.11 1.44-3.9-2.99-2.41 2.12z" /><path d="m424.01 461.08l-8.63 8.67 4.09 1.56 8.63-8.67-4.09-1.56z" /><path d="m424.94 458.74l7.45 3.33 2.13-1.82-7.45-3.33-2.13 1.82z" /></g><g stroke="#000000" stroke-width=".98" fill="none"><path d="m408.68 473.14l14.68-15.12 1.18-1.22" /><path d="m424.54 456.8l3.09-3.18 1.02-1.15" /><path d="m398.41 451.69l8.83 1.09 16.12 5.24" /></g><g stroke="#000000" stroke-width=".98" fill="#FFFFFF"><path d="m404.78 454.74l13.58 5.16 1.7-1.71-13.58-5.16-1.7 1.71z" /><path d="m363.82 452.73l2.27-2.03-11.07-4.72-2.26 2.03 11.06 4.72z" /><path d="m381.66 463.48l-24.16-8.98-2.28 2.35 24.15 8.98 2.29-2.35z" /><path d="m347.15 449.73l-2.18 1.77 5.41 2.55 2.18-1.77-5.41-2.55z" /><path d="m385.07 469.22l11.55 4.79 2.05-1.89-11.55-4.79-2.05 1.89z" /><path d="m407.83 475.62l-7.06-2.81-2.45 2.36 7.07 2.8 2.44-2.35z" /><path d="m405.02 479.44l1.94.66 1.58-1.76 1.02.63 2.07-2.31-3.15-1.08-3.46 3.86z" /><path d="m385.65 515.95l7.39-7.54-2.64-.99-7.39 7.53 2.64 1z" /><path d="m401.25 499.86l3.27-2.72-3.2-1.48-3.28 2.72 3.21 1.48z" /><path d="m407.61 493.17l-3.07-1.1-2.74 2.59 3.2 1.29 2.61-2.78z" /><path d="m361.06 494.34l3.19 2.84 1.18-.5 2.17-1.02-3.18-2.75-2.24 1.04-1.12.39z" /><path d="m368.54 499.19l2.17-1.02-3.11-2.51-2.17 1.02 3.11 2.51z" /><path d="m359.02 491.33l3.16 2.62 2.24-1.04-3.16-2.61-2.24 1.03z" /><path d="m319.83 472.49l-3.65 1.69 5.19 4.31 1.89-.87 2.77 2.29-2.76 1.27 5.03 4.16 4.53-2.08-13-10.77z" /></g><g stroke="#000000" stroke-width=".98" fill="none"><path d="m320.21 480.46l11.51-5.74" /></g><g stroke="#000000" stroke-width=".98" fill="#FFFFFF"><path d="m335.86 476.38l2.29 1.74 1.55-.78 1.97 1.5 2.87-1.44-4.24-3.24-4.44 2.22z" /><path d="m392.94 493.73l4.75-4.02-3.51-1.59-4.76 4.02 3.52 1.59z" /><path d="m380.31 492.91l-4.31 1.72 5.81 5.57 4.31-1.71-5.81-5.58z" /><path d="m361.55 476.75l-3.67 1.5 5.43 5.09 3.62-1.55-5.38-5.04z" /><path d="m367.71 482.68l-3.1 1.51 4.79 3.76 3.1-1.51-4.79-3.76z" /><path d="m374.24 487.06l-3.51 1.36 4.62 4.57 3.52-1.36-4.63-4.57z" /><path d="m383.74 485.47l4.18 1.8 1.55-1.37-4.18-1.8-1.55 1.37z" /><path d="m349.98 476.75l1.53 1.29 3.76-1.7-1.53-1.29-3.76 1.7z" /><path d="m354.49 474.33l2.4 2.42 2.29-.87-2.39-2.42-2.3.87z" /><path d="m350.17 473.13l4.19-1.8-9.67-8.58-4.18 1.8 9.66 8.58z" /><path d="m333.4 469l-3.24 1.81 2.32 1.59 3.24-1.82-2.32-1.58z" /><path d="m318.02 460.9l8.13-3.38-2.31-2.13-8.13 3.38 2.31 2.13z" /><path d="m325.37 456.06l4.19-1.82-1.63-1.43-4.18 1.82 1.62 1.43z" /><path d="m331.47 454.65l1.92-.75.62.6 2.74-1.07-1.59-1.56-2.6 1.02-.46-.45-2.07.81 1.44 1.4z" /><path d="m342.2 452.41l-3.46 1.43 5.69 5.27 3.45-1.42-5.68-5.28z" /><path d="m324.85 466.35l17.24-7.15-2.26-2.08-17.23 7.16 2.25 2.07z" /><path d="m339.7 430.92l14.08-7.82-2.87-1.97-14.07 7.81 2.86 1.98z" /><path d="m305.34 386.47l-5.25-3.95-3.39 1.72 5.25 3.95 3.39-1.72z" /><path d="m299.17 382.19l-4.04-2.52-1.86 1.14-.18 1.21 3.15 1.97 2.93-1.8z" /><path d="m310.93 353.2l4.91 3.04 2.8-1.73-4.92-3.04-2.79 1.73z" /><path d="m316.75 356.58l2.44 1.53 2.71-1.65-2.44-1.53-2.71 1.65z" /><path d="m421.86 383.27l-11.17-4.26-1.02 1.01 11.18 4.27 1.01-1.02z" /><path d="m448.67 353.13l-7.33-1.83-2.59 3.97 7.33 1.83 2.59-3.97z" /><path d="m518.67 320.95l-.57 3.02 3.51.25.56-3.02-3.5-.25z" /><path d="m518.8 325.23l-1.07 3.78 4.46.48 1.07-3.78-4.46-.48z" /><path d="m517.17 329.58l-1.43 3.6 4.88.74 1.43-3.59-4.88-.75z" /><path d="m458.39 361.54l-10.6-.95-.82 3.5 10.6.95.82-3.5z" /><path d="m461.1 363.76l9.32.25.15-2.16-9.32-.25-.15 2.16z" /><path d="m471.3 357.47l7.65.31.34-3.23-7.65-.31-.34 3.23z" /><path d="m484.62 359.95l-5.43-.06-.09 3.19 5.43.06.09-3.19z" /><path d="m486.75 358.26l-.24 3.69 5.53.14.24-3.69-5.53-.14z" /><path d="m460.41 344.94l.88-4.23-4.67-.37-.89 4.23 4.68.37z" /><path d="m469.85 343.33l-.05 3.96 4.2.02.06-3.95-4.21-.03z" /><path d="m481.57 346.11l.05 2.64 11.82-.1-.06-2.56-3.29.03-.04-1.98-5.52.04.04 1.91-3 .02z" /><path d="m440.44 345.16l-5.38-1.65-2.15 2.69 5.38 1.64 2.15-2.68z" /><path d="m459.35 397.91l-.76 3.41 5.68.48.75-3.41-5.67-.48z" /><path d="m415.78 393.28l6.87 2.62 2.11-2.12-5.82-2.22-3.16 1.72z" /><path d="m402.36 385.18l-1.36 2.18 3.29.79 1.36-2.18-3.29-.79z" /><path d="m385.61 381.27l-9.46-5.91-1.88 1.16 9.47 5.9 1.87-1.15z" /><path d="m534.48 356.98l.18 6.03 5.48-.06-.18-6.03-5.48.06z" /><path d="m525.75 402.99l4.42-.33-.25-1.32-.55-2.66-1.67.34.22 1.15-2.67.19.5 2.63z" /><path d="m487.28 427.95l5.71-1.32-.82-1.37-5.73 1.32.84 1.37z" /><path d="m360.51 353.04l-2.53 1.81 7.18 3.84 2.54-1.82-7.19-3.83z" /><path d="m368.05 357.06l-2.48 1.95 7.68 3.74 2.49-1.95-7.69-3.74z" /><path d="m396.7 376.09l-3.84-.82-1.6 2.88 3.84.81 1.6-2.87z" /><path d="m402.13 396.09l-2.2 2.37 3.35 1.18 2.19-2.35-3.34-1.2z" /><path d="m392.4 397.66l3.83 1.73 1.82-1.53-3.83-1.74-1.82 1.54z" /><path d="m393.41 395.51l-9.53-4.87-3.01 2.24 9.54 4.87 3-2.24z" /><path d="m376.89 386.89l-2.6 1.89 5.06 2.68 2.61-1.89-5.07-2.68z" /><path d="m355.99 375.37l-3.09-1.67-2.35 1.67 3.09 1.66 2.35-1.66z" /><path d="m322.12 356.98l-1.85 1.39 3.38 1.71 1.84-1.39-3.37-1.71z" /><path d="m355.86 350.59l-2.6 2 3.72 1.84 2.6-2.01-3.72-1.83z" /><path d="m350.78 348.81l-2.27 2.04 4.11 1.75 2.27-2.04-4.11-1.75z" /><path d="m399.9 373.58l-5.16-2.54-2.21 1.73 5.97 2.93 1.4-2.12z" /><path d="m385.13 366.97l-1.03 2.53 2.12.33-.7 1.72 3.53.55 1.34-3.32-3.12-.49.41-.46-2.55-.86z" /><path d="m376.68 361.87l-2.82 2.05 4.21 2.22 2.82-2.05-4.21-2.22z" /><path d="m381.5 364.28l-2.16 1.71 3.65 1.77 2.16-1.71-3.65-1.77z" /><path d="m342.41 356.92l-2.21 1.55 4.45 2.42 2.21-1.55-4.45-2.42z" /><path d="m327.08 358.9l-2.01 1.3 2.83 1.68 2.01-1.29-2.83-1.69z" /><path d="m330.49 360.67l-3.4 2.11 2.85 1.76 3.41-2.1-2.86-1.77z" /><path d="m334.05 363.58l-2.66 1.62 3.4 2.13 2-1.22-1.74-1.09 1.22-.75-2.22-.69z" /><path d="m334.98 367.93l2.53 1.64 3.15-1.85-2.53-1.64-3.15 1.85z" /><path d="m340.92 368.36l-3.27 2.39 4.03 2.11 3.27-2.39-4.03-2.11z" /><path d="m347.46 370.57l-2.88 2.06 3.76 2.01 2.88-2.05-3.76-2.02z" /><path d="m392.87 382.05l-4.64-1.29-2.88 3.93 4.64 1.3 2.88-3.94z" /><path d="m347.8 359.67l-2.86 1.79 4.25 2.6 2.86-1.8-4.25-2.59z" /><path d="m352.84 362.95l-2.76 2 4.53 2.4 2.76-1.99-4.53-2.41z" /><path d="m355.41 367.91l6.28 3.21 2.79-2.09-6.28-3.21-2.79 2.09z" /><path d="m365.88 370.07l-2.2 1.78 3.02 1.43 2.2-1.79-3.02-1.42z" /><path d="m370.23 371.27l-1.93 2.04 2.16.78-1.47.76 2.09 1.55 3.83-1.96-2.68-.97 1.04-1.1-3.04-1.1z" /><path d="m356.79 376l-2.75 1.88 2.03 1.13 2.75-1.87-2.03-1.14z" /><path d="m361.73 378.82l-2.73-1.31-2.1 1.68 2.72 1.3 2.11-1.67z" /><path d="m362.2 379.59l-2.94 2.16 2.19 1.14 2.94-2.16-2.19-1.14z" /><path d="m366.18 381.31l-2.64 1.69 5.89 3.53 2.64-1.7-5.89-3.52z" /><path d="m373.05 385.83l-3.99 3.02 2.12 1.07 3.98-3.03-2.11-1.06z" /><path d="m504.93 356l-.74 3.43 18.63 1.53.3-1.36-8.11-.67.19-.92-4.01-.33.25-1.14-6.51-.54z" /><path d="m523.67 364.57l-.69 4.91 7.59.41.69-4.92-7.59-.4z" /><path d="m512.26 364.41l-6.48-.62-.46 1.85-2.97-.29-.51 2.06 9.44.9.98-3.9z" /><path d="m511.25 369.44l-6.81-.63-.38 1.59 6.8.63.39-1.59z" /><path d="m498.65 370.34l-.36 1.49 6.1.58.37-1.49-6.11-.58z" /><path d="m498.59 376.81l3.2.22.21-1.18 3.06-.4.19-1.03-6.14-.43-.52 2.82z" /><path d="m516.89 377.77l-.42 2.64 2 .13-.27 1.7 3.76.22.28-1.75 2.73.17.42-2.59-8.5-.52z" /><path d="m497.79 378.61l-1.08 4.38 4.51.43.23-.91 4.35.41.46-1.86-5.04-.48.41-1.6-3.84-.37z" /><path d="m522.09 390.27l-2.85-.35-1.41 4.26 2.85.36 1.41-4.27z" /><path d="m497.09 384.17l-.76 2.48 4.81.57.76-2.48-4.81-.57z" /><path d="m496.53 387.17l-.79 2.15 4.93.69.79-2.14-4.93-.7z" /><path d="m474.84 412.21l7.08 3.78 2.43-1.74-2.12-1.14 2.34-1.68-2.29-1.23-1.53 1.1-2.65-1.42-3.26 2.33z" /><path d="m510.36 415.37l-7.55 3.32 4.72 4.09 3.13-1.38-2.34-2.07 4.73-2.57-2.69-1.39z" /><path d="m512 405.9l-.87 2.91 5.24.59 1.38-4.64-2.93-.33-.51 1.73-2.31-.26z" /><path d="m498.36 403.29l-.84 2.29 6.8.95.84-2.3-6.8-.94z" /><path d="m496.86 408.09l-1.46 2.17 5.25 1.35 1.45-2.17-5.24-1.35z" /><path d="m493.85 392.95l-1.01 2.4 8.41 1.36 1.01-2.4-8.41-1.36z" /><path d="m510.28 393.74l-.82 2.66 8.32.98.82-2.66-8.32-.98z" /><path d="m470.3 400.32l-1.46 3.18 5.11.9 1.47-3.18-5.12-.9z" /><path d="m461.01 404.92l-.46 3.12 4.74.27.46-3.13-4.74-.26z" /><path d="m455.12 403.73l-.65 2.17 3.76.43.64-2.17-3.75-.43z" /><path d="m463.39 386.96l-.92 3.24 7.07.77.93-3.23-7.08-.78z" /><path d="m476.33 389.06l-1.1 2.98 4.2.58 1.09-2.97-4.19-.59z" /><path d="m455.23 391.33l-1.11 2.94 4.57.87 1.32-3.02-4.78-.79z" /><path d="m442.18 402.67l-2.51 4.11 6.91 1.61 2.51-4.11-6.91-1.61z" /><path d="m445.06 400.78l2.79.98.56-1.84 4.46 1.61 1.03-2.23-1.64-.29 1.07-2.81-1.37-.21-1.96-.25-1.22 2.63-2.23-.81-1.49 3.22z" /><path d="m452.76 394.05l-.8 1.94 1.37.21.79-1.93-1.36-.22z" /><path d="m433.82 399.01l-3.26 3.03 3.13 1.29 3.25-3.03-3.12-1.29z" /><path d="m438.73 399.37l2.16-2.41-2.79-.96-2.16 2.41 2.79.96z" /><path d="m448.03 386.41l-3.62 3.69 6.9 2.59 2.58-2.62-3.03-1.14 1.05-1.07-3.88-1.45z" /><path d="m460.38 376.52l-.19 1.45-1.7-.09-.33 2.49 6.57.33.3-2.27-1.65-.08.22-1.67-3.22-.16z" /><path d="m478.68 374.47l-.27 1.55 3.99.37-.58 2.42-2.94-.27-.08.32 3.24.28-.28 1.23 1.21.11.22-.95 2.32.2.13-.55-2.01-.17.6-2.72 4.21.35.28-1.31-10.04-.86z" /><path d="m437.19 413.42l-1.4 2.26 3.09.73 1.4-2.26-3.09-.73z" /><path d="m441.4 414.28l-1.97 2.79 6.02 1.62 1.97-2.79-6.02-1.62z" /><path d="m304.27 391.65l-2.8-1.85-4.2 2.42 2.8 1.86 4.2-2.43z" /><path d="m296.72 371.26l-3.33 2.4 3.92 2.07 3.33-2.4-3.92-2.07z" /><path d="m298.13 365.86l-1.86.23-.46 1.44-1.95.28-.33 1.93 3.9.25.7-4.13z" /><path d="m300.73 374.15l-2.57 1.82 3.76 2.03 2.57-1.81-3.76-2.04z" /><path d="m302.49 378.43l4.37 2.56 2.42-1.58-4.37-2.56-2.42 1.58z" /><path d="m309.89 379.51l-3.19 2.2 2.75 1.53 3.19-2.2-2.75-1.53z" /><path d="m312.34 382.92l4.09 2.52 2.69-1.66-4.09-2.53-2.69 1.67z" /><path d="m322.23 382.24l3.29 1.79 2.34-1.65-3.3-1.79-2.33 1.65z" /><path d="m319.61 384.78l-2.57 1.71 2.36 1.36 2.58-1.71-2.37-1.36z" /><path d="m323.77 387.33l9 5.35 1.77-1.61-8.72-5.08-2.05 1.34z" /><path d="m334.72 393.69l-3.36 2.26 5.63 3.21 3.36-2.26-5.63-3.21z" /><path d="m338.13 400.09l6.14 3.46 2.82-1.93-6.13-3.44-2.83 1.91z" /><path d="m348.12 401.77l-3.25 2.36 3.76 1.98 3.25-2.35-3.76-1.99z" /><path d="m351.64 407.16l3.61 2.1 2.31-1.53-3.6-2.09-2.32 1.52z" /><path d="m358.39 408.34l-2.87 2.03 5.44 2.94 2.87-2.04-5.44-2.93z" /><path d="m364.33 411.84l-2.55 1.92 2.07 1.05 2.55-1.92-2.07-1.05z" /><path d="m382.76 429.51l-2.63-.96-1.29 1.35 2.23 1.38 1.69-1.77z" /><path d="m379.31 431.68l.18-.81-3.05-1.09-.61.65 3.48 1.25z" /><path d="m336.82 437.87l4.22 2.71 5.34-3.17-4.21-2.71-5.35 3.17z" /><path d="m343.16 434.41l2.67 1.9 2.58-1.38-2.68-1.91-2.57 1.39z" /><path d="m366.79 422.09l-1.93 1 2.71 1.99 1.92-.99-2.7-2z" /><path d="m363.7 423.34l-1.21.75 3.11 1.94 1.21-.74-3.11-1.95z" /><path d="m359.1 425.27l-8.19 4.93 3.32 2.11 8.19-4.92-3.32-2.12z" /><path d="m360.53 425.03l2.51 1.69 1.27-.72-2.51-1.69-1.27.72z" /><path d="m349.72 430.7l-3.55 2.03 2.72 1.82 3.55-2.03-2.72-1.82z" /><path d="m332.68 434.11l2.61-1.61-2.79-1.73-2.62 1.61 2.8 1.73z" /><path d="m329.57 432.05l2.89-1.82-4.33-2.62-2.88 1.82 4.32 2.62z" /><path d="m324.64 428.42l3.74-2.1-2.44-1.66-3.74 2.09 2.44 1.67z" /><path d="m321.51 425.75l3.64-1.54-3.8-3.42-3.64 1.54 3.8 3.42z" /><path d="m317.8 421.81l3.1-1.4-2.13-1.8-3.1 1.39 2.13 1.81z" /><path d="m315.16 418.68l5.85-2.98-3-2.25-5.85 2.98 3 2.25z" /><path d="m314.51 414.52l4.35-2.24-1.5-1.12-4.35 2.24 1.5 1.12z" /><path d="m312.44 412.67l5.41-2.84-3.17-2.31-5.41 2.84 3.17 2.31z" /><path d="m309.59 409.26l4.37-2.38-2.5-1.75-4.37 2.39 2.5 1.74z" /><path d="m307.74 406.18l4.22-2.41-2.26-1.51-4.22 2.41 2.26 1.51z" /><path d="m303.9 402.44l5.76-2.83-1.23-.96-5.76 2.84 1.23.95z" /><path d="m304.98 399.98l2.91-1.5-1.52-1.13-2.91 1.5 1.52 1.13z" /><path d="m304.82 396.13l-1.97 1.12 1.1.73 1.97-1.12-1.1-.73z" /><path d="m302.87 395.31l-1.92.97.95.72 2.32-1.18-1.35-.51z" /><path d="m310.26 389.32l-3.6 2.45 3.05 1.71 3.6-2.45-3.05-1.71z" /><path d="m313.68 391.32l-3.57 2.35 2.97 1.72 3.56-2.35-2.96-1.72z" /><path d="m317.54 393.16l-3.26 1.98 1.36.85 3.25-1.97-1.35-.86z" /><path d="m319.16 393.99l-4.69 2.89 1.45.91 1.44-.89.75.47 3.26-2.01-2.21-1.37z" /><path d="m329.7 400.68l-7.89-4.73-2.77 1.77 7.88 4.72 2.78-1.76z" /><path d="m330.5 401.05l-3.24 1.89 3.83 2.5 3.23-1.9-3.82-2.49z" /><path d="m335.05 403.74l-4.37 2.59 4.05 2.6 4.36-2.59-4.04-2.6z" /><path d="m339.09 406.59l-3.91 2.48 6 3.62 3.91-2.47-6-3.63z" /><path d="m346.18 410.51l-3.82 1.97.98.72-1.57.82 1.62 1.2 1.62-.84 2.34 1.74 3.77-1.95-4.94-3.66z" /><path d="m351.95 414.11l-3.84 2.21 1.42.95 1.03-.59.84 1.08-.81.47 1.61 1.07 1.36-.78 1.45.97-.81.46 1.31.87 1.16-.67.97.64 2.34-1.34-8.03-5.34z" /><path d="m484.92 494.95l3.9-4.39-3.58-1.22-3.9 4.39 3.58 1.22z" /><path d="m525.09 517.2l5.86-9.43-4.9-1.17-2.75 4.43-3.11 5 4.9 1.17z" /><path d="m536.93 497.51l-5.32-1.15-5.3 9.43 5.32 1.14 5.3-9.42z" /><path d="m516.28 479.46l4.73 1.19 1.24-1.9-4.73-1.18-1.24 1.89z" /><path d="m515.15 480.54l-1.35 2.3 5.33 1.2 1.36-2.3-5.34-1.2z" /><path d="m514.58 484.1l-4.75 8.47 4.52.97 4.75-8.47-4.52-.97z" /><path d="m510.03 490.03l-4.29-1.06-1.57 2.43 4.28 1.06 1.58-2.43z" /></g><g stroke="#000000" stroke-width=".98" fill="none"><path d="m498.84 490.65l19.69 4.88" /></g><g stroke="#000000" stroke-width=".98" fill="#FFFFFF"><path d="m495.09 491.63l12.64 4.03 1-1.2-12.64-4.03-1 1.2z" /><path d="m509.89 494.48l-1.12 1.64 3.4.89 1.12-1.65-3.4-.88z" /><path d="m507.38 497.54l-1.48 2.75-5.02 5.75 4.83 2.47 4.27-4.43 2.51-5.17-5.11-1.37z" /><path d="m496.03 504.57l2.34-1.75-11.79-5.63-13.56-4.31-1.73 1.78 12.98 4.6 11.76 5.31z" /><path d="m541.98 489.34l-2.81-.57-1.41 2.68-3.63-1.67-1.57 2.7 6.31 2.76 3.11-5.9z" /><path d="m468.69 493.05l3.01-3.33-4.96-1.71-1.16 1.28-19.96-6.92 1.87-2.06-2.82-.98-3.72 4.11 27.74 9.61z" /><path d="m453.42 492.82l-3.38 4.47 11.95 3.45 3.38-4.46-11.95-3.46z" /><path d="m465.02 498.66l9.32 2.72 2-2.62-9.32-2.72-2 2.62z" /><path d="m496.91 515.95l-2.79 1.91 7.52 4.2 3.6-2.47-1.97-1.09 1.81-1.25 10.72 5.99 3.35-2.29-11.93-6.66-1.86-1.03-5.95 4.08-2.5-1.39z" /><path d="m516.77 523.67l5.29 2.47 2.32-2.06-5.29-2.48-2.32 2.07z" /><path d="m522.79 528.71l-4.24-2.07-3.68 2.9-2.2-1.07-2.06 1.62 6.45 3.13 5.73-4.51z" /><path d="m528.01 535.41l-6.96-3.5-2 1.51 6.97 3.51 1.99-1.52z" /><path d="m538.75 502l-4.31 9.22 6.09 1.09 4.3-9.22-6.08-1.09z" /><path d="m529.21 520.4l10.5 3.91 4.83-9.6-10.32-1.72-5.01 7.41z" /><path d="m535.16 539.53l3.99-2.3-1.14-.89-4.16 2.49 1.31.7z" /><path d="m487.92 536.25l-4.64 3.55 6.49 3.24-4.54 3.47 4.99 2.49 5.92-4.54 10.7-.65-.65-4.1-10.14.62-.91.7-1.92-.95.94-.72-6.24-3.11z" /><path d="m531.68 551.32l-1.89 1.51 10.46 5.01 1.89-1.51-10.46-5.01z" /></g><g stroke="#000000" stroke-width=".98" fill="none"><path d="m480.77 567.8l10.41-3.62 3.11 3.07 1.43-.03" /></g><g stroke="#000000" stroke-width=".98" fill="#FFFFFF"><path d="m490.94 561.68l-13.93 4.54 3.44 2.78 13.42-3.84-2.93-3.48z" /></g><g stroke="#000000" stroke-width=".98" fill="none"><path d="m490.94 561.68l12.87-4.76 3.53.45.71 2.1 2.72 2.85" /><path d="m507.34 557.37l7.33-3.82 2.7-2.78 3.25-1.72" /><path d="m544.63 559.53l-6.32 1.41-2.09-2.42-5.73-2.92" /></g><g stroke="#000000" stroke-width=".98" fill="#FFFFFF"><path d="m546.81 561.65l-2.55-4.3-4.51 1.03-.56-.6-9.52-4.68-6.96 4.45 2.65 1.9 6.96-1.64 3.76 5.8 10.73-1.96z" /></g><g stroke="#000000" stroke-width=".98" fill="none"><path d="m507.01 573.26l4.74-1.78-7.92-7.41" /></g><g stroke="#000000" stroke-width=".98" fill="#FFFFFF"><path d="m514.12 572.68l-3.16-2.9-6.6 3.28 3.02 2.58 6.74-2.96z" /></g><g stroke="#000000" stroke-width=".98" fill="none"><path d="m513.51 577.31l15.18-5.93" /></g><g stroke="#000000" stroke-width=".98" fill="#FFFFFF"><path d="m511.66 576.53l3.34 3.45 4.46-1.44-3.02-3.87-4.78 1.86z" /><path d="m529.32 576.99l-2.44-3.2-3.4.99 2.44 3.2 3.4-.99z" /><path d="m525.03 572.31l-3.9-3.5-5.11 1.92 4 3.62 5.01-2.04z" /><path d="m497.2 568.45l1.64 1.58 1.2-.47 1.66 1.6 4.06-1.6.36.35 1.71-.68-1.24-1.2-1.51.6-.56-.55-2.06.81-.36-.34 1.56-.62-1.09-1.04-1.11.44-.42-.4-3.84 1.52z" /><path d="m480.65 571.23l4.69-1.73 3.32 3.43-.89.32 1.61 1.67 5.1-1.88-2.84-2.94 1.38-.51-1.6-1.67 1.63-.6-2.17-2.25-11.93 4.41 1.7 1.75z" /><path d="m496.06 566.04l10.79-4.47-2.86-2.65-10.79 4.48 2.86 2.64z" /><path d="m515.66 570.35l4.24-1.47-.98-1.07-4.23 1.47.97 1.07z" /><path d="m514.38 569.1l2.31-.88-1.83-1.83.19-.46-.7-.77-.74-.12-.88.23-.43.26-.13.58-.58.22 2.79 2.77z" /><path d="m538.3 565.73l9.79-2.02-1.03-1.91-9.8 2.01 1.04 1.92z" /><path d="m540.94 550.42l2.08-1.64-2.79-1.36-2.08 1.64 2.79 1.36z" /><path d="m534.94 550.42l-3.7-1.73-1.57 1.28 3.7 1.73 1.57-1.28z" /><path d="m536.68 548.94l2.15-1.57-3.1-1.62-2.15 1.57 3.1 1.62z" /><path d="m533.2 547.2l2.72-1.9-4.55-2.49-6.83 4.77 1.16.63 4.11-2.87 3.39 1.86z" /><path d="m493.87 576.62l-6.64 2.79 3.95 3.47 1.3-.37 2.78 1.49 4.46-2.5-5.85-4.88z" /><path d="m503.44 583.68l3.52 3.12 4.42-1.71-2.31-2.17-.9-.85-4.73 1.61z" /><path d="m516.67 583.22l-2.83-2.27-4.77 1.97 2.31 2.17.28.2 5.01-2.07z" /><path d="m510.08 595.37l8.26-3.79-2.83-2.61-5.34 2.04.65.26-3.72 1.52 2.98 2.58z" /><path d="m518.54 590.88l2.8-1.12-3.41-3.25-2.8 1.12 3.41 3.25z" /><path d="m522.24 589.57l1.77-.49 3.99-2.33 7.71-3.44-2.88-2.56-1.81 1.07.65.69-12.54 4.62 3.11 2.44z" /><path d="m536.33 580.68l3.35-1.57-2.47-2.02-1.12.53.61.5-1.29.6-.79-.63-.94.44 2.65 2.15z" /><path d="m539.98 578.8l4.97-1.38-1.81-2.38-5.34 1.61 2.18 2.15z" /><path d="m487.13 590.89l-2.66 7.17 3.23.45.25-.69 1.91.27 2.4.34.84-2.26-2.45-.35-3.02-.43 1.56-4.21-2.06-.29z" /><path d="m493.27 596.81l-.05 1.43 6.31.61-.46-1.76-5.8-.28z" /><path d="m500.28 598.55l4.44-1.29 1.99-.57-1.95-2.57-1.2.38-1.35.38-3.88 1.1 1.95 2.57z" /><path d="m493.13 583.34l-9.52 4.3 4.08 2.99 2.38-1.12 1.94 1.32 5.34-2.78 3.58 3.93 1.99-.17 1.82 1.49 4.08-1.89-3.71-2.76-4.32-6.78-6.08 2.76.32.29-1.9-1.58z" /><path d="m500.53 592.62l1.68 2.26 1.35-.38-1.68-2.26-1.35.38z" /><path d="m475.39 576.21l-2.79 4.4 6.22 1.55-.69 1.67 3.25 1.09 2.41-4.6-3.99-1 1.16-1.61-5.57-1.5z" /><path d="m481.91 576.29l1.17-1.95-7.29-1.68-1.17 1.96 7.29 1.67z" /><path d="m365 570.93l1.91.59.71-.88 1.88.58.73-.9 3.27 1.01 1.93-2.39-2.16-.67-.46.58-2.64-.81-.98 1.22-2.27-.7-1.92 2.37z" /><path d="m374.1 573.54l5.2 1.61.19-.6 1.77.63 1.57-2.93-1.76-.49 1.11-1.78-3.9-1.49-1.53 2.1-.65-.2-2 3.15z" /><path d="m383.71 576.99l17.42 2.59 2-6.12-4.14-.69-1.02 2.73-8.82-1.09.69-2.36 1.17.23 2.04-5.4 13.05 1.67 1.25-2.5-17.6-2.21-2.51 7.46-1.25-.46-.7 2.76-.69-.11-.89 3.5z" /><path d="m407.11 575.62l-.6 2.11-1.17-.13-1.03 3.62 7.26.78.89-3.15-1.28-.14.74-2.57-4.81-.52z" /><path d="m415.77 578.22l-1.24 4 7.72.91 1.24-3.99-7.72-.92z" /><path d="m431.6 584.3l-4.08-.47-.77 2.55 4.08.48.77-2.56z" /><path d="m435.15 584.24l7.92.42.08-.53 2.96.16.29-2.12-2.33-.12.14-1.02-8.55-.46-.51 3.67z" /><path d="m445.25 586.48l15.36.89.55-3.66-6.9-.39-.23 1.52-8.46-.48-.32 2.12z" /><path d="m457.28 596.09l-1.77 2.76 8.22 1.29 1.02-2.56-7.47-1.49z" /><path d="m466.1 598.07l-.93 2.16 7.66 1.43.61-.31.41-.95.14-.43-.79-.84-4.99-.74-2.11-.32z" /><path d="m538.66 613.89l-2.97 1.51.76.57-6.99 3.56 4.16 3.13 3.64-1.86-1.57-1.18 6.83-3.29-3.86-2.44z" /><path d="m529.06 608.91l-4.11 2.2.89.64-6.33 3.39 4.4 3.14 2.49-1.33-1.65-1.18 7.96-4.26-3.65-2.6z" /><path d="m517.31 603.35l-.56.32-1.62.92-2.19 1.24 5.37 3.62 4.37-2.48-5.37-3.62z" /><path d="m515.13 604.59l1.62-.92-1.94-1.2 4.44-2.89-1.99-1.32-6.21 3.68 4.08 2.65z" /></g><g stroke="#000000" stroke-width=".98" fill="none"><path d="m518.88 597.2l9.56 8.47 8.69 7.23" /><path d="m530.21 605.89l8.69 6.41" /><path d="m529.7 605.37l-9.85-8.84" /></g><g stroke="#000000" stroke-width=".98" fill="#FFFFFF"><path d="m541.73 593.77l2.27-1.24-7.66-4.99-2.32 1.09 7.71 5.14z" /></g><g stroke="#000000" stroke-width=".98" fill="none"><path d="m519.85 596.53l3.16-1.76 11.01-6.14" /></g><g stroke="#000000" stroke-width=".98" fill="#FFFFFF"><path d="m453.66 594.79l-.51-.08-4.36-.68-.12.28-1.02 2.52-.72 1.79 1.79.28.4-.99 3.08.48 1.46-3.6z" /><path d="m433.44 592.58l-1.03 3.29-1.01 4.18 14.72.14.81-1.57.72-1.79 1.02-2.52-6.26-.9-8.97-.83z" /><path d="m433.17 592.46l-5.43-.46-.14.64-.95-.08-.6 2.67 1.15.1-.29 1.26 4.32.37.26-1.17.92.08.76-3.41z" /><path d="m414.46 591.65l-.55.99-.42 1.29 4.88.44-.48 2.11 5.28.47.78-3.4-2.23-.2.15-.65-.79-.07.3-1.31-5.74-.51-.21.93-.97-.09z" /><path d="m413.49 593.93l.42-1.29-2.26-.28.44-1.37-3-.36.25-.77-6.09-.75-.19.58-2.54-.32-1.17 3.66 1.89.23.37-1.17 10.07 1.23-.74 2.33 1.92.24.63-1.96z" /><path d="m388.44 588.71l-1.08 3.57 2.72.32.13-.44 2.41.28.39-1.28 2.79.31-.17.55 3.3.38.67-2.23-2.62-.31.33-1.07-5.1-.59-.27.92-3.5-.41z" /><path d="m378.07 594.98l-3.91-.49-.74 2.23 3.92.5.73-2.24z" /><path d="m366.02 583.6l-.97 2.52 11.57 1.69.53-.53.51-1.12-.06-.9-2.94-.43.24-.64-5.47-.8-.26.66-3.15-.45z" /><path d="m377.66 586.16l-.51 1.12 2.18.39-1 2.2 1.97.34.88-1.91 3.08.53-1.01 2.21 2.27.4.59-1.29 1.54.27 1.18-2.58-2.45-.43.26-.56-6.58-1.15-.37.81-2.03-.35z" /><path d="m401.15 600.47l-.4-1.64-30.36 2.8.39 1.64 30.37-2.8z" /></g><g stroke="#000000" stroke-width=".98" fill="none"><path d="m361.29 601.44l4.26 2.22 3.45.97 4.3 1.01 7.16.3" /><path d="m345.44 582.04l10.31.31 6.08 1.47" /></g><g stroke="#000000" stroke-width=".98" fill="#FFFFFF"><path d="m345.55 585.54l3.43 1.54 1.66-1.42 1.04.46-1.06.9 4.12 1.85 1.09-.93-2.17-.97 1.84-1.58-.64-.28-.72.63-3.29-1.47.77-.67-1.71-.76-1.97 1.7-1.11-.09-1.28 1.09z" /><path d="m352.48 580.23l2.71-2.29-6.3-2.84-4.13 3.49 2.09.95 1.42-1.21 4.21 1.9z" /><path d="m336.6 571.53l-3.54 2.52 5.47 2.94 3.54-2.52-5.47-2.94z" /></g><g stroke="#000000" stroke-width=".98" fill="none"><path d="m318.85 568.64l3.83.93 1.25 1.32" /><path d="m339.58 579.31l-7.84-4.25-3.12.39-3.85.48" /></g><g stroke="#000000" stroke-width=".98" fill="#FFFFFF"><path d="m301.81 571.19l-6.39 3.37 3.9 2.82.75-.91 2.68 1.94-3.66 1.94 4.22 3.05 3.11-1.65 1.56 1.14 5.77-3.05-4.8-3.48-7.14-5.17z" /></g><g stroke="#000000" stroke-width=".98" fill="none"><path d="m321.34 560.35l-2.49 8.29" /></g><g stroke="#000000" stroke-width=".98" fill="#FFFFFF"><path d="m312.75 558.78l-3.4 1.93-1.96-1.32-3.71 2.11 7.7 5.19 7.11-4.04-5.74-3.87z" /><path d="m282.24 570.57l3.88 2.71 8.03-4.39-2.02-1.41 9.05-4.95-3.04-2.12-9.92 5.42 1.18.83-7.16 3.91z" /><path d="m351.57 602.93l-.85-2.32-6.15.86.85 2.32 6.15-.86z" /><path d="m314.97 608.72l5.62-1.22-1.18-2.09-5.62 1.22 1.18 2.09z" /><path d="m321.38 607.13l6.13-.93-.98-2.45-6.13.93.98 2.45z" /><path d="m329.58 606.09l6.28-1.06-1.07-2.43-6.29 1.07 1.08 2.42z" /><path d="m337.57 604.64l6.42-.89-.9-2.5-6.42.88.9 2.51z" /><path d="m313.91 608.85l-2.09-2.11-5.13 1.93 2.08 2.12 5.14-1.94z" /><path d="m308.24 611.48l-3.47-3.68-1.88.68 1.26 1.33-.97.37 2.46 2.02 2.6-.72z" /><path d="m281.64 618.08l2.13 2.05 4.57-1.81-2.12-2.06-4.58 1.82z" /><path d="m287.45 616l2.34 2.26 2.71-1.08-2.34-2.26-2.71 1.08z" /><path d="m291.12 614.71l1.92 1.94 2.74-1.04-1.92-1.94-2.74 1.04z" /><path d="m294.77 613.46l2.05 1.81 2.83-1.04-1.95-1.98-2.93 1.21z" /><path d="m300.31 613.96l4.3-1.55-1.83-1.95-1.04.38-1.66-1.76-2.16.78 1.67 1.78-1.09.39 1.81 1.93z" /><path d="m279.24 620.97l-7.41.36.31 2.56 7.42-.35-.32-2.57z" /><path d="m234.43 631.55l1.87 2.49 22.09-6.37-2.09-2.77-2.3.66.74.99-17.64 5.09-.53-.71-2.14.62z" /><path d="m230.1 626.07l5.03-1.45-.35-.47 3.53-1.03.47.63 4.33-1.25-.58-.76 3.07-.88.51.67 5.56-1.6-1.7-2.26-2.11.61.25.33-19.42 5.61 1.41 1.85z" /><path d="m261.2 617.81l3.19 3.97 3.88-1.19-3.19-3.97-3.88 1.19z" /><path d="m261.02 614.02l5.75-.41-.84-4.44-5.74.41.83 4.44z" /><path d="m261.71 608.15l3.6-.2-.64-4.35-3.6.21.64 4.34z" /><path d="m263.54 597.96l-3.62.26.9 4.75 3.62-.27-.9-4.74z" /><path d="m263.29 597.26l-.37-4.74-3.54.2.79 4.71 3.12-.17z" /><path d="m257.06 587.44l.64 4.6 4.11-.22-.64-4.6-4.11.22z" /><path d="m248.44 570.82l-3.14 4.57 4.29 1.13 3.14-4.57-4.29-1.13z" /><path d="m261.38 585.8l.85-4.82-4.1-.28-.85 4.82 4.1.28z" /><path d="m267.53 569.95l-1.56 1.46 1.54.63-6.08 5.67-1.13-.47-1.63 1.52 3.47 1.42 9.26-8.64-3.87-1.59z" /><path d="m270.88 569.95l8.63-3.9-1.58-1.34-8.63 3.9 1.58 1.34z" /><path d="m285.02 563.07l-1.98-1.68-4.29 1.94.65.55-1 .44 1.92 1.62 1.59-.72-.57-.48 3.68-1.67z" /><path d="m295.57 549.98l-1.95 2.55 5.88 1.72 1.94-2.56-5.87-1.71z" /><path d="m350.25 562.81l2.72.91 2.13-2.41-2.72-.92-2.13 2.42z" /><path d="m348.07 561.04l2.56.8 2.11-2.6-4.83-1.5-1.74 2.15 2.26.7-.36.45z" /><path d="m337.66 555.07l-2.53 2.37 5.83 2.37 1.38-1.29 2.43.99 2.14-2.01-3.82-1.56-1 .93-4.43-1.8z" /><path d="m332.21 550.73l-4.93-2.37-4.57 3.63 4.94 2.37 4.56-3.63z" /><path d="m318.75 542.34l-3.03.61.67 1.28-4.57.92 2.14 4.07 3.98-.8-.63-1.21 3.62-.72-2.18-4.15z" /><path d="m315.95 539.72l-3.74 1.14-2.06-2.59-3.78 1.15 3.78 4.74 7.52-2.29-1.72-2.15z" /><path d="m258.8 558.3l-9.3 9.98 5.41 1.93 3.4-3.66-2.03-.72 1.59-1.71 2.54.9 4.3-4.61-5.91-2.11z" /><path d="m272.56 557.62l-7.83.23 2.37 1.99 5.63-.17-.17-2.05z" /><path d="m282.02 553.36l5.5 1.6 2.21-2.9-5.49-1.6-2.22 2.9z" /><path d="m275.09 552.37l5.57 1.63 2.14-2.8-5.57-1.63-2.14 2.8z" /><path d="m268.46 551.15l5.3 1.72 2.12-2.51-5.3-1.72-2.12 2.51z" /><path d="m256.18 553.32l3.48 1.61 4.42-3.82-3.68-1.53-4.22 3.74z" /><path d="m269.79 546.57l3.8-3.45-3.06-1.26-4.04 3.39 3.3 1.32z" /><path d="m255.56 551.7l-5.06-2.29-2.89 2.44 5.07 2.29 2.88-2.44z" /><path d="m262.77 539.45l-3.55 2.9 5.03 2.35 3.55-2.9-5.03-2.35z" /><path d="m261.53 538.42l-3.37-1.46-3.29 2.92 3.38 1.46 3.28-2.92z" /><path d="m254.03 539.4l3.08-2.91-3.36-1.37-3.09 2.92 3.37 1.36z" /></g><g stroke="#000000" stroke-width=".98" fill="none"><path d="m244.99 540.99l12.92-10.98" /></g><g stroke="#000000" stroke-width=".98" fill="#FFFFFF"><path d="m331.88 529.21l-4.42-2.25-1.73 1.19-1.12.86 4.47 2.3 2.8-2.1z" /><path d="m325.73 528.15l1.73-1.19 1.37-.95-4.24-2.35-3.11 2.13 4.25 2.36z" /><path d="m322.6 523.14l-4.37-2.15.9-.7-3.92-1.92-3.12 2.43 3.38 1.66-.83.65 4.9 2.41 3.06-2.38z" /><path d="m297.56 506.89l2.03 3.31 1.21-.28 2.37 3.84 4.23-.99-2.27-3.71-2.63.62-2.12-3.45-2.82.66z" /><path d="m310.31 512.33l-4.65 1.41 1.9 2.4-1.24.38 2.53 3.19 4.76-1.44-2.21-2.79 1.13-.35-2.22-2.8z" /><path d="m330.9 538.02l4.64-3.67-3.03-1.47-4.64 3.67 3.03 1.47z" /><path d="m370.42 533.5l-2.3-.96-7.52 6.9-.54-.23-2.07 1.9 4.57 1.91 4.71-4.31-1.35-1.08 4.5-4.13z" /><path d="m356.88 541.45l2.96-2.64-17.68-7.56-2.72 2.43 3.09 1.33-1.16 1.05-2.98-1.28-2.6 2.33 8.28 3.54 2.16-1.93-1.86-.8 1.3-1.26 11.21 4.79z" /><path d="m314.21 504.12l1.28 2.01 3.77-.92.82 1.29 3.44-.83 1.48 2.32 3.78-.92-2.13-3.36-3.7.9-.62-.98-3.79.92-.82-1.28-3.51.85z" /><path d="m260.65 478.88l3.73-3.69-3.91-1.52-3.73 3.7 3.91 1.51z" /><path d="m256.44 477.78l-3.46 3.47 4.32 1.65 3.46-3.47-4.32-1.65z" /><path d="m252.35 481.8l-3.5 3.7 3.67 1.33 3.51-3.7-3.68-1.33z" /><path d="m249.12 487.17l.14 4.39 4.09-.06-.15-4.39-4.08.06z" /><path d="m250.75 492.8l2.81 3.57 3.29-.99-2.81-3.57-3.29.99z" /><path d="m255.17 496.64l3.01 3.63 3.69-1.17-3.02-3.63-3.68 1.17z" /><path d="m223.25 501.15l-.09 2.65 10.97 8.46 2.78-1.51 20.92-8.15-7.13-4.41-3.86-4.78-1.44-3.41-22.15 11.15z" /><path d="m263.98 498.88l-4.35 1.61 3.93 4.05 2.35-.87.69.72 2.01-.75-4.63-4.76z" /><path d="m241.71 513.44l3.3 2.26 2.49-1.39 1.92.75 1.42-1.38.74.8 2.54-2.42 2.01.81 7.91-4.43-2.62-1.79-7.34 4.11-2.69-1.83-6.02 3.38-.74-.5-2.92 1.63z" /><path d="m280.09 513l-2.23-2-4.35 1.86 2.25 2 4.33-1.86z" /><path d="m280.31 513.69l-4.25 1.84 2.04 1.8 4.24-1.84-2.03-1.8z" /><path d="m284.92 515.74l-4.06 1.53 1.85 1.88 4.06-1.53-1.85-1.88z" /><path d="m284.1 519.9l1.9 2.16 4.2-1.41-1.9-2.16-4.2 1.41z" /><path d="m298.48 542.29l3.74-1.43-1.91-1.92-3.74 1.44 1.91 1.91z" /><path d="m295.38 539.69l3.76-1.4-1.82-1.86-3.76 1.4 1.82 1.86z" /><path d="m295.2 535.8l-1.58-1.35-3.18 1.43 1.58 1.35 3.18-1.43z" /><path d="m289.7 534.65l2.76-1.17-1.35-1.22-2.77 1.17 1.36 1.22z" /><path d="m290.26 531.74l-1.7-1.87-4.41 1.53 1.7 1.87 4.41-1.53z" /><path d="m282.34 527.13l-3.19 1.12 2.6 2.82 3.19-1.12-2.6-2.82z" /><path d="m278.66 527.28l-2.5-2.06-3.5 1.64 2.51 2.05 3.49-1.63z" /><path d="m274.56 524.55l-2.28-1.63-3.57 1.91 2.28 1.63 3.57-1.91z" /><path d="m270.96 522.07l-1.92-1.17-3.41 2.14 1.93 1.17 3.4-2.14z" /><path d="m267.91 520.02l-1.58-1.33-4.46 2.03 1.57 1.33 4.47-2.03z" /><path d="m262.24 515.96l-4.04 1.58 2.53 2.48 4.05-1.58-2.54-2.48z" /><path d="m338.31 514.79l-2.75-1.31-2.99 2.38 1.39.27-2.42 2.03.88.4-2.67 2.25 3.94 1.79 3.61-3.03-1.02-1.54 1.02-.81-1.26-.61 2.27-1.82z" /><path d="m398.7 553.48l3.8-7.71-4.24-.8-4.11 8.34 4.55.17z" /><path d="m379.14 555.45l7.33 2.14 3.87-5.07-3.7-1.08-2.77 3.63-3.63-1.06-1.1 1.44z" /><path d="m421.28 550.89l-3.71-.85-1.75 2.93-1.09-.25-1.18 1.98 7.62 1.74 1.14-1.91-2.83-.64 1.8-3z" /><path d="m409.11 550.95l.67-1.58 3.26.53.8-1.89-7.01-1.13-1.47 3.47 3.75.6z" /><path d="m438.05 556.99l-.98 2.14 4.5.79-.88 1.95 3.75.65 1.87-4.08-8.26-1.45z" /><path d="m432.14 560.43l1.17-2.45-6.06-1.11-1.18 2.45 6.07 1.11z" /><path d="m371.51 548.82l-3.67-.71-2.28 4.51 7.73 1.49.92-1.81-4.07-.78 1.37-2.7z" /><path d="m345.8 544.59l-5.99-2.56-4.78 4.28 11.17 4.78 2.53-2.27-5.18-2.21 2.25-2.02z" /><path d="m342.05 630.02l-1.72-3.07-8.69 1.86 1.73 3.08 8.68-1.87z" /><path d="m321.63 630.05l1.49 2.74 8.63-1.81-1.49-2.73-8.63 1.8z" /><path d="m312.35 633.28l1.49 2.6 8.69-1.9-1.49-2.6-8.69 1.9z" /><path d="m296.24 629.48l-3.6 1.83 6.06 4.6 3.61-1.82-6.07-4.61z" /><path d="m262.87 652.23l8.63-2.5-1.94-2.56-8.63 2.5 1.94 2.56z" /><path d="m260.4 640.12l-3.08 1.13 2.53 2.63 3.08-1.13-2.53-2.63z" /><path d="m262.91 643.73l-2.85.96 1.19 1.36 2.86-.95-1.2-1.37z" /><path d="m281.16 657.55l-5.3-7.32-6 1.66 5.31 7.32 5.99-1.66z" /><path d="m278.62 663.75l-2.94.85 2.38 3.15 2.94-.85-2.38-3.15z" /><path d="m282.63 666.72l10.85-2.6-1.97-3.15-10.85 2.6 1.97 3.15z" /><path d="m301.43 654.46l10.36-1.52-1.04-2.69-10.35 1.51 1.03 2.7z" /><path d="m319.63 651.63l4.62-.89-2.88-5.78-4.63.88 2.89 5.79z" /><path d="m271.89 642.99l3.36 4.2 3.7-1.14-3.36-4.19-3.7 1.13z" /><path d="m329.27 647.62l1.18 2.52 7.02-1.25-1.19-2.52-7.01 1.25z" /><path d="m337.2 646.02l1.46 3.24 6.27-1.09-.84-1.86 4.74-.82.55 1.23 1.24-.21-1.43-3.17-1.46.25-.3-.65-5.22.9.55 1.22-5.56.96z" /><path d="m355.08 640l2.46 5.31 6.36-1.12-2.45-5.31-6.37 1.12z" /><path d="m367.47 639.92l1.56 3.15 12.21-2.31-1.56-3.15-12.21 2.31z" /><path d="m362.18 627.04l8.69-1.8-1.12-2.06-8.69 1.8 1.12 2.06z" /><path d="m371.91 623.48l1.08 2.12 10.12-1.99-1.09-2.11-10.11 1.98z" /><path d="m385.15 624.71l2.9 5.59 3.91-.78-2.9-5.58-3.91.77z" /><path d="m384.34 631.54l1.08 1.96 5.2-1.21-.79-1.72-5.49.97z" /><path d="m394.85 616.57l-5.72 27.57 60.2.24.62-12.23 1.51-14.16-23.22-.41.28-5.97-5.95-.57-27.21 3.5-.51 2.03z" /><path d="m512.93 666.14l-2.56-1.39-7 4.94 2.57 1.39 6.99-4.94z" /><path d="m521.79 671.16l2.69-2.04-8.59-4.32-2.7 2.04 8.6 4.32z" /><path d="m537.57 654.83l2.33 2.76 2.69-.92 7.43 7.29 2.42-.4 2.32 3.04 2.41-.74-12.82-12.87-6.78 1.84z" /></g><g stroke="#000000" stroke-width=".98" fill="none"><path d="m279.45 488.53l-4.99 2.91-.22 3.2 3.59 2.49 8.07 5.31 4.09 6.12 2.71 2.46 6.51 6.48 1.16 1.61 3.08 2.65 16.02 11.69" /><path d="m319.47 533.45l21.5 10.95 11.92 5.15" /><path d="m352.89 549.55l12.39 4.61" /><path d="m365.28 554.16l12.78 4.32" /><path d="m285.46 486.24l-3.71 2-2.27 1.71-1.54 2.14-.56 2" /><path d="m355.14 614.3l-2.63-2.49-.43-2.48" /><path d="m368.28 614.09l-2.74 1.19-3.47.55-4.14-.43-2.79-1.1" /><path d="m480.24 619.69l.25.37 1.9 2.32 1.91 2.24 3.67 2.65 2.36 1.68 2 1.42 4.18 2.84-4.92 3.02" /><path d="m490.33 628.95l-15.74 8.95-4.92 0-14.17.74-.46-3.31 11.47-.48 17.79-10.23" /><path d="m480.49 620.06l-6.46 3.9" /><path d="m480.24 619.69l9.91-5.49" /><path d="m480.49 620.06l-3.02-1.84-2.32-5.29-2.79-3.61-2.3-2.09" /><path d="m482.99 608.97l-2.22 1.09-1.21.66-1.21 1.55-.23 2.53.65 2.07 1.47 2.82" /><path d="m286.67 632.44l-13.51 4.18" /><path d="m288.12 634.16l1.4 1.71-13.15 3.88-1.55-1.49" /><path d="m412.08 586.29l2.9-9.49-2.67-4.36" /><path d="m466.79 595.51l.56-12.06" /><path d="m490.65 595.82l.55-1.19 4.82-2.8" /><path d="m488.8 600.59l1.06-2.5" /><path d="m443.64 590.57l-2.1 5.98-5.52-.36" /><path d="m489.86 598.09l.79-2.27" /><path d="m439.75 589l6.32.75 4.87.81 4.63.9 2.65.62" /><path d="m460.85 592.65l.42.1 2.9.69" /><path d="m334.65 557.24l.58-.6-.71-.26-.73-.26 1.3-1.37" /><path d="m252.59 286.55l.8.28 9.02 3.37 5.26 3.02 5.64 3.72 4.51 3.73 3.2 3.24 2.44 3.26 2.25 3.95 3.95 9.77 5.07 13.59 1.51 5.58 1.13 6.39.38 5.12-.63 4.54" /><path d="m297.12 356.11l-2.19 4.76-2.26 3.95-1.14 2.18-.74 1.42-.36 1.68-.63 2.94.05 4.22.11.84.45 3.46 1.32 4.64 2.33 4.56 3.87 7.42 5.26 8.36 5.45 8.26 2.45 3.48 4.32 4.5 3.95 3.41 3.95 3.02 4.51 3.49 3.75 3.91" /><path d="m331.57 436.61l5.92 4.48 4.05 3.12 4.7 2.9 5.22 2.92 5.87 3.01 6.95 2.67 22.2 8.72 22.2 8.71" /><path d="m408.68 473.14l5.52 2.14" /><path d="m414.2 475.28l5.14 1.84 19.44 6.91 31.2 10.82 9.8 3.43 4.33 1.68 5.36 2.58 9.73 4.29 7.8 3.43 3.83.45 3.34-.26" /><path d="m514.17 510.45l-.11 2.8 1.49 2.6 4.47 2.57 5.43 2.79 9.32 3.79 2.82.94" /><path d="m537.59 525.94l7.3 2.57" /></g><g stroke="#000000" stroke-width="1" fill="#000000"><ellipse transform="matrix(1, 0, 0, 1, 521.06, 521.96)" cx="0" cy="0" rx="3.78" ry="3.78" /><ellipse transform="matrix(1, 0, 0, 1, 315.72, 615.14)" cx="0" cy="0" rx="3.78" ry="3.78" /><ellipse transform="matrix(1, 0, 0, 1, 314.93, 621.98)" cx="0" cy="0" rx="3.78" ry="3.78" /><ellipse transform="matrix(1, 0, 0, 1, 515.48, 594.11)" cx="0" cy="0" rx="3.78" ry="3.78" /><ellipse transform="matrix(1, 0, 0, 1, 529.61, 592.47)" cx="0" cy="0" rx="3.78" ry="3.78" /><ellipse transform="matrix(1, 0, 0, 1, 324.65, 553.99)" cx="0" cy="0" rx="3.78" ry="3.78" /><ellipse transform="matrix(1, 0, 0, 1, 324.68, 557.61)" cx="0" cy="0" rx="3.78" ry="3.78" /></g><g stroke="#000000" stroke-width=".98" fill="none"><path d="m347.3 701.74l4.36-2.73 6.79-1.69 8.72.45 11.48 1.86 8.41.78 8.17-.92 9.23-3.14 8.52-4.65 8.34-5.9 6.67-4.06 6.09-3.69 4.88-2.82 8.97-2.64 5.67-.17 5.99 1.42 6.93 3.02 4.25 1.03 4.29-1.5 1.86-3.03 1.94-1.14 4.43-2.6 4.9-3.97 7.24-2.75 5.06-1.5 5.5-1.63 7.72-2.93 6.17-3.51 2.97-1.69 13.82-5.23 19.94-9.46 7.15-3.43 16.05-4.32 9.49-5.68 3.74-7.11 2.6-4.59-.74-4.14 1.86-4.83 11.23-9.55-3.26-8.18 8.6-6.47 9.08-4.54 8.08-2.35 4.97-3.85 3.26-1.74 2.39-3.09 1.75-4.88 5.44-6.6-2.44-4.94.63-4.98.43-.74 1.44-2.49 6.28-5.72 7.06-5.92 6.86-6.43 1.21-2.83.14-2.79-1.7-4.2-2.21-1.59-.56-2.25.11-2.69.33-2.81 2.39-3.04 7.95-4.67 13.51-7.95 8-5.21" /><path d="m378.06 558.48l7.33 3.39 2.27.67 1.61-.06 1.61-1 4.33-4.67 1.48-.9 1.33-.51 1.25-.11 1.72 0 24.19 10.62 13.16 2.32 10.15.82 5.04-.38 6.78-.7 6.68-.46 8.46-2.94 5.57-3.03 9.29-2.75 10.03-3.42 10.07-4.13 10.75-5.76 8.27-4.6 9.64-7.58 2.88-3.23 2.75-7.15 6.26-10.93 6.31-11.83 1.72-6.41.67-6.22 3.9-11.68 4.72-10.91 5.81-10.93 2.68-4.77 4.15-4.34 4.56-2.96 6.43-2.03 4.43-1.42 10.13-4.15 13.53-6.69 7.1-5.13 2.9-1.82 6.71-4.22 8.4-5.53 3.6-4.21 1.28-4.66.33-7.69 3.1-2.17 10.49-2.84 9.84-2.91 3.71-.46 3.17.61 2.36 1.42 3.45 3.7 3.63 3.4 3.47 1.66 5.01.52 5.06-.94 2.69-.95 1.36-1.57.87-2.01.32-3.72.88-3.67 4.09-2.89 5.52-1.88 5.31-.87 13.67-.14 8.2 1.31 6.29 1.75 8.72 3.04 6.88.69 5.09-.02 5.57-1.39 3.59-2.85 4.02-3.34 5.64-3 7.98-4.51 8.64-1.99 9-1.31 9.26-1.33 8.29-2.07 7-2.51 10.86-4.04 4.46-1.88 5.25-2.82 4.02-1.84 6.24-3.06 7.67-3.81" /><path d="m365.28 554.16l12.78 4.32" /><path d="m352.89 549.55l12.39 4.61" /><path d="m319.47 533.45l21.5 10.95 11.92 5.15" /><path d="m279.45 488.53l-4.99 2.91-.22 3.2 3.59 2.49 8.07 5.31 4.09 6.12 2.71 2.46 6.51 6.48 1.16 1.61 3.08 2.65 16.02 11.69" /><path d="m91.35 261.49l-21.94 17.25-12.23 7.34-.87 4.84-1.34 7.44 2.85 3.84 7.14 2.39 24.52 5.24 35.67-8.34 33.85-4.26 16.39-.41 27.4 1.47 11.7 6.91 15.85 2.72 1.8 3.83-7.57 2.02-1.42 4.66 10.85 19.43 14.86 13.13 11.2 26.32-23.96 5.27 2.21 19.36-.34 4.95-2.26 4.77-1.31 4.42.38 4.81 5.61 16.41 6.98 16.09 4.64 10.27 4.19 1.93 6.21 2.44 10.81 8.31 4.99 8.33 1.24 3.86" /></g><g stroke="#000000" stroke-width="1" fill="#000000"><ellipse transform="matrix(1, 0, 0, 1, 324.68, 557.61)" cx="0" cy="0" rx="3.78" ry="3.78" /></g><g stroke="#000000" stroke-width=".98" fill="none"><path d="m543.05 639.09l-25.05-17.89-8.6-5.47-9.42-4.66-8.35-2.46-11.69-2.12-9.05-.95-13.13-.72-15.49-.47-9.06.57-16.99.77-13.74 1.01-11.23 1.45-8.21 1.22-5.69 1.54-9.07 3.18" /><path d="m368.28 614.09l-2.74 1.19-3.47.55-4.14-.43-2.79-1.1" /><path d="m355.14 614.3l-2.63-2.49-.43-2.48" /><path d="m352.08 609.33l1.35-2.45 2.35-1.61 2.44-.82" /><path d="m358.22 604.45l1.26-1.84.09-2.76" /><path d="m359.27 598.42l.3 1.43" /><path d="m363.21 579.24l-.39 2.53-.99 2.05-.32.65-.61 2.79-.95 5.25-.68 5.91" /><path d="m210.78 489.95l1.54 3.5 2.57 4.18 4.98 5.68 1.09 1.23 1.53 1.18 16.76 12.9 5.56 3.67 13.1 7.72.82.48 14.3 6.55 6.63 2.47 14.34 4.61 13.26 4.77 9.83 3.65 10.89 4.72 1.27.48 7.07 3.14 7.45 3.89 8.41 4.74 4.11 2.61 4.53 2.3 1.71 2.61.68 2.21" /></g><g stroke="#000000" stroke-width="1" fill="#000000"><ellipse transform="matrix(1, 0, 0, 1, 324.65, 553.99)" cx="0" cy="0" rx="3.78" ry="3.78" /></g><g stroke="#000000" stroke-width=".98" fill="none"><path d="m210.78 489.95l1.54 3.5 2.57 4.18 4.98 5.68 1.09 1.23 1.53 1.18 16.76 12.9 5.56 3.67 13.1 7.72.82.48 14.3 6.55 6.63 2.47 14.34 4.61 13.26 4.77 9.83 3.65 10.89 4.72 1.27.48 7.07 3.14 7.45 3.89 8.41 4.74 4.11 2.61 4.53 2.3 1.71 2.61.68 2.21" /><path d="m363.21 579.24l-.39 2.53-.99 2.05-.32.65-.61 2.79-.95 5.25-.68 5.91" /><path d="m359.27 598.42l.3 1.43" /><path d="m359.57 599.85l1.72 1.59 3.3 3.06" /><path d="m364.59 604.5l2.12.53 2.55 1.5" /><path d="m369.26 606.53l7.1-.17 4.1-.42 2.61-.27 7.42-.76 13.14-1.02 13.15-1.19 11.72-.78 15.34-.22 14.48.13 12.72.6 11 .94 12.01 2.18 8.83 3.06 9.93 4.89 9.19 5.94 24.04 17.16" /><path d="m210.78 489.95l1.54 3.5 2.57 4.18 4.98 5.68 1.09 1.23 1.53 1.18 16.76 12.9 5.56 3.67 13.1 7.72.82.48 14.3 6.55 6.63 2.47 14.34 4.61 13.26 4.77 9.83 3.65 10.89 4.72 1.27.48 7.07 3.14 7.45 3.89 8.41 4.74 4.11 2.61 4.53 2.3 1.71 2.61.68 2.21" /><path d="m363.21 579.24l-.39 2.53-.99 2.05-.32.65-.61 2.79-.95 5.25-.68 5.91" /><path d="m346.11 607.37l1.16-.79 3.3-.75 2.73-1.54 1.86-1.26.44-.86 1.05-3.9 2.62.15" /><path d="m338.99 608.3l7.12-.93" /><path d="m344.38 615.62l-.08-1.93-.14-1.88-3.92.55-.5-1.43-.75-2.63" /><path d="m540.87 640.04l-3.87-2.75-10.59-7.79-8.36-5.77-8.66-5.45-3.05-1.75-7.08-3.51-8.62-2.94-7.65-1.11-11.35-1.66-1.58-.08-22.81-1.19-11.3.37-7.25.83-4.52.33-27.16 1.96-15.75 3.13-12.19 3.86-10.4 1.28-14.3-2.18" /><path d="m245.73 462.94l9.45-4.46" /><path d="m255.18 458.48l6.1-2.88 7.9-3.03" /><path d="m269.18 452.57l2.81 3.49.76 1.86.37 2.09.94 1.98 1.13 1.62 1.69.94 3.01 1.16 2.06.81 4.14 1.28 2.07 1.05 1.88 1.27 1.31 1.4 1.13 2.09 1.13 3.02 2.25 4.19 2.26 2.56 2.63 2.55 3.38 2.21 2.82 1.51 3.95 1.17 3.2.69 6.95 1.51 4.32.7 4.52.58 4.13.58 2.63.47 2.63.93 3.39 1.28 2.82 1.62 2.44 2.21 3.38 3.26 3.76 3.84 2.63 3.36 1.88 2.91.94 2.56.38 2.21.56 2.55 1.13 1.63 1.88 1.51 1.5 1.05 18.24 5.35 6.01 1.39 7.33 1.16 4.14.47 7.7 1.4 6.39 1.27 6.77 1.75 4.7 1.51 3.38.93 3.01.35 3.94 0 2.45-.47 2.26-1.05 3.19-2.2 7.71-7.21 8.08-9.19 3.76-4.76 1.31-2.32 1.32-2.21.8-2.25 5.85-5.76 5.47-6.15" /></g><g stroke="#000000" stroke-width="1" fill="#000000"><ellipse transform="matrix(1, 0, 0, 1, 324.65, 553.99)" cx="0" cy="0" rx="3.78" ry="3.78" /></g><g stroke="#000000" stroke-width=".98" fill="none"><path d="m210.78 489.95l1.54 3.5 2.57 4.18 4.98 5.68 1.09 1.23 1.53 1.18 16.76 12.9 5.56 3.67 13.1 7.72.82.48 14.3 6.55 6.63 2.47 14.34 4.61 13.26 4.77 9.83 3.65 10.89 4.72 1.27.48 7.07 3.14 7.45 3.89 8.41 4.74 4.11 2.61 4.53 2.3 1.71 2.61.68 2.21" /><path d="m363.21 579.24l-.39 2.53-.99 2.05-.32.65-.61 2.79-.95 5.25-.68 5.91" /><path d="m359.27 598.42l.3 1.43" /><path d="m359.57 599.85l1.72 1.59 3.3 3.06" /><path d="m364.59 604.5l2.12.53 2.55 1.5" /><path d="m369.26 606.53l7.1-.17 4.1-.42 2.61-.27 7.42-.76 13.14-1.02 13.15-1.19 11.72-.78 15.34-.22 14.48.13 12.72.6 11 .94 12.01 2.18 8.83 3.06 9.93 4.89 9.19 5.94 24.04 17.16" /></g><g stroke="#000000" stroke-width="1" fill="#000000"><ellipse transform="matrix(1, 0, 0, 1, 315.72, 615.14)" cx="0" cy="0" rx="3.78" ry="3.78" /><ellipse transform="matrix(1, 0, 0, 1, 515.48, 594.11)" cx="0" cy="0" rx="3.78" ry="3.78" /></g><g stroke="#000000" stroke-width=".98" fill="none"><path d="m228.82 646.08l11.72-4.68 8.31-2.73 10.93-3.64 11.23-4.4 10.23-3.87 4.54-1.72 13.15-4.64 11.12-3.34 11.48-2.89 9.38-1.93 8.83-1.31 6.55-.8 3.88-.54 1.91-.26" /><path d="m352.08 609.33l1.35-2.45 2.35-1.61 2.44-.82" /><path d="m358.22 604.45l1.26-1.84.09-2.76" /><path d="m359.27 598.42l.3 1.43" /><path d="m363.21 579.24l-.39 2.53-.99 2.05-.32.65-.61 2.79-.95 5.25-.68 5.91" /><path d="m481.5 598.74l-14.71-3.23-10.93-2.59-8.41-1.82-3.81-.53-5.06-.7-11.12-1.47-3.5-.49-9.12-1.29-2.76-.33-9.55-1.12-3.56-.45-5.95-.75-10.37-2.03-9.14-1.8-10.3-.9" /><path d="m481.5 598.74l7.3 1.85 1.02.26 5.41.65 4.17.18 5.08-.65 4.72-1.31 4.29-1.68 3.06-1.91 1.07-.59 4.04-2.62 9.11-5.78 7.01-4.02 3.51-1.64 3.71-1.49 2.56-.95 10.55-2.1 7.27-1.54 1.97-.36 8.03-1.46 3.13-.59 8.6-1.63 3.78-.55 1.45-.18 4.97-.74" /></g><g stroke="#000000" stroke-width="1" fill="#000000"><ellipse transform="matrix(1, 0, 0, 1, 529.61, 592.47)" cx="0" cy="0" rx="3.78" ry="3.78" /><ellipse transform="matrix(1, 0, 0, 1, 314.93, 621.98)" cx="0" cy="0" rx="3.78" ry="3.78" /></g><g stroke="#000000" stroke-width=".98" fill="none"><path d="m481.5 598.74l7.3 1.85 1.02.26 5.41.65 4.17.18 5.08-.65 4.72-1.31 4.29-1.68 3.06-1.91 1.07-.59 4.04-2.62 9.11-5.78 7.01-4.02 3.51-1.64 3.71-1.49 2.56-.95 10.55-2.1 7.27-1.54 1.97-.36 8.03-1.46 3.13-.59 8.6-1.63 3.78-.55 1.45-.18 4.97-.74" /><path d="m481.5 598.74l-14.71-3.23-10.93-2.59-8.41-1.82-3.81-.53-5.06-.7-11.12-1.47-3.5-.49-9.12-1.29-2.76-.33-9.55-1.12-3.56-.45-5.95-.75-10.37-2.03-9.14-1.8-10.3-.9" /><path d="m363.21 579.24l-.39 2.53-.99 2.05-.32.65-.61 2.79-.95 5.25-.68 5.91" /><path d="m359.27 598.42l.3 1.43" /><path d="m359.57 599.85l1.72 1.59 3.3 3.06" /><path d="m364.59 604.5l2.12.53 2.55 1.5" /><path d="m369.26 606.53l1.69 2.67-.5 2.78-2.17 2.11" /><path d="m368.28 614.09l-2.74 1.19-3.47.55-4.14-.43-2.79-1.1" /><path d="m355.14 614.3l-8.49-.72-2.35.11-4.58.2-7.89 1.44-9.38 2.04-10.53 2.71-10.28 3.17-14.09 4.81-3.56 1.38-10.61 4.1-2.46.88-4.77 1.71-4.78 1.73-11.08 3.6-8.49 2.43-12.98 2.19" /><path d="m210.78 489.95l1.54 3.5 2.57 4.18 4.98 5.68 1.09 1.23 1.53 1.18 16.76 12.9 5.56 3.67 13.1 7.72.82.48 14.3 6.55 6.63 2.47 14.34 4.61 13.26 4.77 9.83 3.65 10.89 4.72 1.27.48 7.07 3.14 7.45 3.89 8.41 4.74 4.11 2.61 4.53 2.3 1.71 2.61.68 2.21" /><path d="m481.5 598.74l-14.71-3.23-10.93-2.59-8.41-1.82-3.81-.53-5.06-.7-11.12-1.47-3.5-.49-9.12-1.29-2.76-.33-9.55-1.12-3.56-.45-5.95-.75-10.37-2.03-9.14-1.8-10.3-.9" /><path d="m481.5 598.74l7.3 1.85 1.02.26 5.41.65 4.17.18 5.08-.65 4.72-1.31 4.29-1.68 3.06-1.91 1.07-.59 4.04-2.62 9.11-5.78 7.01-4.02 3.51-1.64 3.71-1.49 2.56-.95 10.55-2.1 7.27-1.54 1.97-.36 8.03-1.46 3.13-.59 8.6-1.63 3.78-.55 1.45-.18 4.97-.74" /><path d="m481.5 598.74l7.3 1.85 1.02.26 5.41.65 4.17.18 5.08-.65 4.72-1.31 4.29-1.68 3.06-1.91 1.07-.59 4.04-2.62 9.11-5.78 7.01-4.02 3.51-1.64 3.71-1.49 2.56-.95 10.55-2.1 7.27-1.54 1.97-.36 8.03-1.46 3.13-.59 8.6-1.63 3.78-.55 1.45-.18 4.97-.74" /><path d="m481.5 598.74l-14.71-3.23-10.93-2.59-8.41-1.82-3.81-.53-5.06-.7-11.12-1.47-3.5-.49-9.12-1.29-2.76-.33-9.55-1.12-3.56-.45-5.95-.75-10.37-2.03-9.14-1.8-10.3-.9" /><path d="m210.78 489.95l1.54 3.5 2.57 4.18 4.98 5.68 1.09 1.23 1.53 1.18 16.76 12.9 5.56 3.67 13.1 7.72.82.48 14.3 6.55 6.63 2.47 14.34 4.61 13.26 4.77 9.83 3.65 10.89 4.72 1.27.48 7.07 3.14 7.45 3.89 8.41 4.74 4.11 2.61 4.53 2.3 1.71 2.61.68 2.21" /></g></g></svg>